<svg width="153" height="153" viewBox="0 0 153 153" fill="none" xmlns="http://www.w3.org/2000/svg">
<path d="M71.9334 17.759L68.7622 20.9303C60.2632 16.1734 50.1153 15.222 41.0455 18.203L40.5381 17.759C34.3859 11.5434 24.3014 11.5434 18.1491 17.759C11.9969 23.9747 11.9335 33.9958 18.1491 40.148L18.5931 40.6554C15.6121 49.7251 16.5635 59.8731 21.3204 68.3721L18.1491 71.5433C17.2594 72.4223 16.5529 73.4692 16.0707 74.6232C15.5886 75.7773 15.3403 77.0156 15.3403 78.2663C15.3403 79.5171 15.5886 80.7554 16.0707 81.9094C16.5529 83.0635 17.2594 84.1104 18.1491 84.9894L27.092 93.9957C30.8341 97.6743 36.796 97.6743 40.5381 93.9957L42.758 91.7124L87.6628 136.554C91.3414 140.296 97.3668 140.296 101.109 136.554L136.944 100.719C140.686 96.9767 140.686 90.9513 136.944 87.2092L92.1025 42.3679L94.3858 40.148C98.0645 36.4059 98.0645 30.444 94.3858 26.7019L85.3795 17.6956C83.5873 15.9224 81.1645 14.933 78.6433 14.9449C76.1222 14.9568 73.7088 15.969 71.9334 17.759ZM27.3457 44.7146C27.8531 42.5581 28.7411 40.4651 29.9462 38.4989L24.8722 33.425C24.1912 32.782 23.6886 31.9734 23.4134 31.0782C22.5889 28.9218 23.0329 26.2579 24.8722 24.4821C26.7115 22.7062 29.3119 22.1988 31.4684 23.0233C32.3563 23.277 33.1174 23.7844 33.8151 24.4821L38.8891 29.556C40.8552 28.351 42.9483 27.463 45.1047 26.9556C50.5592 25.37 56.3943 25.7505 61.5952 28.0338L28.424 61.205C26.1407 56.0042 25.7601 50.1691 27.3457 44.7146ZM130.221 93.9957L94.3858 129.831L49.5444 84.9894L85.3795 49.1543L130.221 93.9957ZM87.6628 33.425L33.8151 87.2727L24.8722 78.2663L78.6565 24.4821L87.6628 33.425ZM94.3858 73.7632L74.1533 93.9957L67.4303 87.2727L87.6628 67.0401L94.3858 73.7632ZM107.832 87.2727L87.6628 107.442L80.8763 100.719L101.109 80.4862L107.832 87.2727Z" fill="#363636"/>
</svg>
