<svg width="34" height="34" viewBox="0 0 34 34" fill="none" xmlns="http://www.w3.org/2000/svg">
<path d="M9.91669 25.5C8.35835 25.5 7.09752 26.775 7.09752 28.3333C7.09752 29.8917 8.35835 31.1667 9.91669 31.1667C11.475 31.1667 12.75 29.8917 12.75 28.3333C12.75 26.775 11.475 25.5 9.91669 25.5ZM24.0834 25.5C22.525 25.5 21.2642 26.775 21.2642 28.3333C21.2642 29.8917 22.525 31.1667 24.0834 31.1667C25.6417 31.1667 26.9167 29.8917 26.9167 28.3333C26.9167 26.775 25.6417 25.5 24.0834 25.5ZM22.0292 18.4167C23.0917 18.4167 24.0267 17.8358 24.5084 16.9575L29.58 7.76334C29.6994 7.54861 29.7607 7.30643 29.7577 7.06076C29.7548 6.81508 29.6877 6.57444 29.5632 6.36263C29.4387 6.15082 29.2611 5.9752 29.0478 5.85314C28.8346 5.73107 28.5932 5.6668 28.3475 5.66668H7.38085L6.04919 2.83334H1.41669V5.66668H4.25002L9.35002 16.4192L7.43752 19.8758C6.40335 21.7742 7.76335 24.0833 9.91669 24.0833H26.9167V21.25H9.91669L11.475 18.4167H22.0292ZM8.72669 8.50001H25.9392L22.0292 15.5833H12.0842L8.72669 8.50001Z" fill="black"/>
</svg>
