<svg width="141" height="198" viewBox="0 0 141 198" fill="none" xmlns="http://www.w3.org/2000/svg">
<g clip-path="url(#clip0_25_380)">
<path d="M92.1449 14.0654H65.8417V29.6499H92.1449V14.0654Z" fill="#2F2E41"/>
<path d="M39.7831 16.5783H26.2217V11.8462C26.2217 10.0467 26.9361 8.32083 28.2077 7.04837C29.4794 5.7759 31.2041 5.06104 33.0024 5.06104C34.8008 5.06104 36.5255 5.7759 37.7971 7.04837C39.0688 8.32083 39.7831 10.0467 39.7831 11.8462V16.5783ZM26.5219 16.2779H39.4829V11.8462C39.4829 10.1264 38.8001 8.47693 37.5848 7.26081C36.3695 6.04469 34.7211 5.36148 33.0024 5.36148C31.2837 5.36148 29.6354 6.04469 28.42 7.26081C27.2047 8.47693 26.5219 10.1264 26.5219 11.8462V16.2779Z" fill="#3F3D56"/>
<path d="M46.4888 15.9276V14.0782L12.0005 15.0029L10.9089 61.8465L16.0131 68.1558L46.4888 15.9276Z" fill="#8E4C24"/>
<path d="M52.5939 15.2765L15.2126 16.1277L16.0131 68.1557L52.0879 64.2648L52.5939 15.2765Z" fill="#DD702D"/>
<path d="M84.3758 183.843H80.1327L78.1143 167.466H84.3765L84.3758 183.843Z" fill="#FFB6B6"/>
<path d="M85.4578 187.959L71.7764 187.958V187.785C71.7765 186.372 72.3376 185.016 73.3362 184.017C74.3349 183.018 75.6893 182.456 77.1016 182.456H77.1019L85.458 182.457L85.4578 187.959Z" fill="#2F2E41"/>
<path d="M68.8015 183.843H64.5584L62.54 167.466H68.8022L68.8015 183.843Z" fill="#FFB6B6"/>
<path d="M69.8835 187.959L56.2021 187.958V187.785C56.2022 186.372 56.7633 185.016 57.762 184.017C58.7606 183.018 60.115 182.456 61.5273 182.456H61.5277L69.8838 182.457L69.8835 187.959Z" fill="#2F2E41"/>
<path d="M56.3405 81.2983C56.3405 81.2983 50.1412 94.6576 55.7418 121.548C61.3425 148.438 61.3888 177.96 61.3888 177.96L69.9525 178.1L74.7632 114.543L77.2819 177.202H85.719L93.1547 115.533C93.1547 115.533 98.0476 87.9957 87.1361 83.0654L56.3405 81.2983Z" fill="#2F2E41"/>
<path d="M86.0147 34.1522L67.2642 32.4226C61.3841 36.7113 58.0839 44.414 58.7614 52.3616C59.6799 63.1373 59.3692 77.9666 51.9979 84.409C51.9979 84.409 72.0885 100.276 89.9351 85.2228C89.9351 85.2228 83.8326 68.8633 88.0224 62.3303C92.2123 55.7973 93.7239 37.4422 86.0147 34.1522Z" fill="#E4E4E4"/>
<path d="M30.2224 7.52571C30.1649 8.06656 30.2266 8.61345 30.4031 9.12786C30.5797 9.64226 30.8669 10.1117 31.2443 10.503C31.6218 10.8944 32.0804 11.1981 32.5879 11.3929C33.0954 11.5877 33.6394 11.6688 34.1816 11.6305L58.9389 34.7501L63.3761 27.9865L37.6452 7.38743C37.5205 6.48025 37.0675 5.65037 36.3722 5.05506C35.6768 4.45974 34.7874 4.14034 33.8724 4.15739C32.9574 4.17443 32.0805 4.52674 31.4078 5.14754C30.7351 5.76834 30.3133 6.61451 30.2224 7.52571Z" fill="#FFB6B6"/>
<path d="M54.3158 31.1785L60.1889 25.1415C60.3561 24.9697 60.5582 24.836 60.7816 24.7495C61.005 24.6629 61.2444 24.6256 61.4836 24.64C61.7227 24.6544 61.9559 24.7202 62.1673 24.8329C62.3788 24.9456 62.5634 25.1026 62.7088 25.2932L67.8005 31.9712C68.6738 32.8317 69.1704 34.0037 69.1816 35.23C69.1927 36.4564 68.7174 37.6372 67.8599 38.5135C67.0024 39.3898 65.8326 39.8901 64.6071 39.9047C63.3815 39.9193 62.2002 39.447 61.3221 38.5914L54.535 33.695C54.3407 33.5548 54.1789 33.3742 54.0606 33.1658C53.9423 32.9573 53.8703 32.7258 53.8495 32.487C53.8287 32.2482 53.8596 32.0077 53.9401 31.7819C54.0205 31.5561 54.1487 31.3503 54.3158 31.1785V31.1785Z" fill="#E4E4E4"/>
<path d="M122.2 63.8274C122.227 63.2841 122.135 62.7415 121.93 62.2377C121.725 61.7339 121.413 61.2812 121.014 60.9115C120.615 60.5417 120.14 60.2639 119.623 60.0976C119.105 59.9313 118.558 59.8806 118.019 59.9491L92.0159 38.2415L87.961 45.2413L114.796 64.3781C114.971 65.2769 115.469 66.0803 116.196 66.6361C116.924 67.1918 117.83 67.4613 118.742 67.3934C119.655 67.3255 120.511 66.925 121.148 66.2678C121.785 65.6105 122.159 64.7422 122.2 63.8274Z" fill="#FFB6B6"/>
<path d="M96.8302 41.5505L91.3012 47.9047C91.1439 48.0855 90.9495 48.2302 90.7313 48.3291C90.513 48.4279 90.276 48.4785 90.0365 48.4774C89.7969 48.4763 89.5604 48.4236 89.343 48.3228C89.1257 48.222 88.9326 48.0755 88.7769 47.8933L83.3223 41.5087C82.4024 40.6981 81.8413 39.5555 81.762 38.3316C81.6828 37.1076 82.0918 35.9021 82.8993 34.9795C83.7069 34.0568 84.8472 33.4922 86.0702 33.4096C87.2931 33.3269 88.4989 33.7329 89.4231 34.5385L96.4716 39.0501C96.6734 39.1793 96.8449 39.3505 96.9746 39.5521C97.1043 39.7537 97.189 39.9808 97.223 40.2181C97.2571 40.4554 97.2396 40.6973 97.1718 40.9272C97.104 41.1571 96.9875 41.3697 96.8302 41.5505Z" fill="#E4E4E4"/>
<path d="M124.842 73.0061H114.569V69.4217C114.569 68.0586 115.11 66.7513 116.073 65.7875C117.037 64.8236 118.343 64.2821 119.705 64.2821C121.068 64.2821 122.374 64.8236 123.337 65.7875C124.3 66.7513 124.842 68.0586 124.842 69.4217L124.842 73.0061ZM114.797 72.7785H124.614V69.4217C124.614 68.119 124.097 66.8696 123.176 65.9484C122.256 65.0272 121.007 64.5097 119.705 64.5097C118.403 64.5097 117.155 65.0272 116.234 65.9484C115.314 66.8696 114.797 68.119 114.797 69.4217V72.7785Z" fill="#3F3D56"/>
<path d="M129.921 72.5132V71.1123L103.797 71.8129L102.97 107.295L106.836 112.075L129.921 72.5132Z" fill="#8E4C24"/>
<path d="M134.545 72.0199L106.23 72.6647L106.836 112.074L134.162 109.127L134.545 72.0199Z" fill="#DD702D"/>
<path d="M77.955 29.3037C84.0716 29.3037 89.03 24.3419 89.03 18.2213C89.03 12.1008 84.0716 7.13904 77.955 7.13904C71.8384 7.13904 66.88 12.1008 66.88 18.2213C66.88 24.3419 71.8384 29.3037 77.955 29.3037Z" fill="#FFB6B6"/>
<path d="M72.856 13.2821C76.6872 17.0392 83.3544 17.3993 87.5676 14.0767C88.7369 18.1124 88.865 22.379 87.9397 26.4777C87.0144 30.5764 85.066 34.3735 82.2765 37.5144C84.6201 38.3617 87.3181 37.8043 89.4128 36.4537C91.5076 35.1031 93.059 33.0409 94.2297 30.8397C97.1277 25.3904 97.8533 18.7367 95.8031 12.9147C93.7528 7.09278 88.8408 2.26519 82.8731 0.701987C76.9054 -0.861221 70.0629 1.06973 66.0758 5.77997C61.9066 10.7054 61.2311 17.9225 63.0582 24.113C64.8852 30.3036 68.8924 35.6199 73.2953 40.3373C71.1805 34.8958 69.7781 29.2033 69.1231 23.4016C68.8991 21.4147 68.7682 19.3665 69.3292 17.4474C69.8901 15.5283 71.2707 13.7407 73.1949 13.2014" fill="#2F2E41"/>
<path d="M139.752 188.612H7.88992C7.79813 188.612 7.7101 188.575 7.6452 188.51C7.58029 188.445 7.54382 188.357 7.54382 188.265C7.54382 188.174 7.58029 188.085 7.6452 188.021C7.7101 187.956 7.79813 187.919 7.88992 187.919H139.752C139.844 187.919 139.932 187.956 139.997 188.021C140.062 188.085 140.098 188.174 140.098 188.265C140.098 188.357 140.062 188.445 139.997 188.51C139.932 188.575 139.844 188.612 139.752 188.612Z" fill="#CACACA"/>
<path d="M119.304 158.548H109.032V154.963C109.032 153.6 109.573 152.293 110.536 151.329C111.499 150.365 112.806 149.824 114.168 149.824C115.53 149.824 116.836 150.365 117.8 151.329C118.763 152.293 119.304 153.6 119.304 154.963L119.304 158.548ZM109.259 158.32H119.077V154.963C119.077 153.661 118.559 152.411 117.639 151.49C116.718 150.569 115.47 150.051 114.168 150.051C112.866 150.051 111.617 150.569 110.697 151.49C109.776 152.411 109.259 153.661 109.259 154.963V158.32Z" fill="#CACACA"/>
<path d="M124.383 158.055V156.654L98.2594 157.354L97.4326 192.837L101.299 197.616L124.383 158.055Z" fill="#CACACA"/>
<path d="M129.008 157.562L100.692 158.206L101.299 197.616L128.625 194.669L129.008 157.562Z" fill="#E4E4E4"/>
</g>
<defs>
<clipPath id="clip0_25_380">
<rect width="139.658" height="197.447" fill="white" transform="translate(0.440445 0.169189)"/>
</clipPath>
</defs>
</svg>
