<svg width="138" height="138" viewBox="0 0 138 138" fill="none" xmlns="http://www.w3.org/2000/svg">
<path d="M65.1187 88.1188C66.1729 89.173 67.4916 89.6751 69.0747 89.6253C70.6541 89.5793 71.9708 89.0292 73.025 87.9751C74.0792 86.9209 74.6063 85.5792 74.6063 83.9501C74.6063 82.3209 74.0792 80.9792 73.025 79.9251L67.85 74.7501H86.3937C88.0229 74.7501 89.3646 74.1981 90.4188 73.0941C91.4729 71.9939 92 70.6292 92 69.0001C92 67.3709 91.4499 66.0043 90.3498 64.9003C89.2458 63.8001 87.8792 63.2501 86.25 63.2501H67.85L73.1688 57.9313C74.2229 56.8771 74.727 55.5585 74.681 53.9753C74.6312 52.396 74.0792 51.0792 73.025 50.0251C71.9708 48.9709 70.6292 48.4438 69 48.4438C67.3708 48.4438 66.0292 48.9709 64.975 50.0251L50.025 64.9751C48.875 66.1251 48.3 67.4667 48.3 69.0001C48.3 70.5334 48.875 71.8751 50.025 73.0251L65.1187 88.1188ZM69 126.5C61.0458 126.5 53.5708 124.99 46.575 121.969C39.5792 118.952 33.4938 114.856 28.3188 109.681C23.1438 104.506 19.0478 98.4209 16.031 91.4251C13.0103 84.4292 11.5 76.9542 11.5 69.0001C11.5 61.0459 13.0103 53.5709 16.031 46.5751C19.0478 39.5792 23.1438 33.4938 28.3188 28.3188C33.4938 23.1438 39.5792 19.046 46.575 16.0253C53.5708 13.0085 61.0458 11.5001 69 11.5001C76.9542 11.5001 84.4292 13.0085 91.425 16.0253C98.4208 19.046 104.506 23.1438 109.681 28.3188C114.856 33.4938 118.952 39.5792 121.969 46.5751C124.99 53.5709 126.5 61.0459 126.5 69.0001C126.5 76.9542 124.99 84.4292 121.969 91.4251C118.952 98.4209 114.856 104.506 109.681 109.681C104.506 114.856 98.4208 118.952 91.425 121.969C84.4292 124.99 76.9542 126.5 69 126.5ZM69 115C81.7458 115 92.5999 110.521 101.562 101.562C110.521 92.6 115 81.7459 115 69.0001C115 56.2542 110.521 45.4001 101.562 36.4378C92.5999 27.4793 81.7458 23.0001 69 23.0001C56.2542 23.0001 45.402 27.4793 36.4435 36.4378C27.4812 45.4001 23 56.2542 23 69.0001C23 81.7459 27.4812 92.6 36.4435 101.562C45.402 110.521 56.2542 115 69 115Z" fill="#DD702D"/>
</svg>
