<svg width="37" height="31" viewBox="0 0 37 31" fill="none" xmlns="http://www.w3.org/2000/svg">
<path d="M36.3692 4.125C35.0538 4.7375 33.6359 5.14 32.1667 5.3325C33.67 4.405 34.8317 2.935 35.3784 1.1675C33.9604 2.0425 32.3888 2.655 30.7317 3.005C29.3821 1.5 27.4859 0.625 25.3334 0.625C21.3188 0.625 18.0388 3.985 18.0388 8.1325C18.0388 8.7275 18.1071 9.305 18.2267 9.8475C12.145 9.5325 6.72961 6.54 3.12503 2.0075C2.49294 3.11 2.13419 4.405 2.13419 5.77C2.13419 8.3775 3.41544 10.6875 5.39711 12C4.18419 12 3.05669 11.65 2.06586 11.125V11.1775C2.06586 14.8175 4.59419 17.8625 7.94253 18.545C6.86752 18.8464 5.73894 18.8883 4.64544 18.6675C5.10944 20.1593 6.01815 21.4647 7.24385 22.4001C8.46954 23.3355 9.95058 23.854 11.4788 23.8825C8.88831 25.9833 5.67727 27.1188 2.37336 27.1025C1.79253 27.1025 1.21169 27.0675 0.630859 26.9975C3.87669 29.1325 7.73753 30.375 11.8717 30.375C25.3334 30.375 32.7304 18.93 32.7304 9.0075C32.7304 8.675 32.7304 8.36 32.7134 8.0275C34.1484 6.9775 35.3784 5.6475 36.3692 4.125Z" fill="#6D6D6D"/>
</svg>
