<svg width="232" height="189" viewBox="0 0 232 189" fill="none" xmlns="http://www.w3.org/2000/svg">
<g clip-path="url(#clip0_25_381)">
<path d="M184.922 34.5574C183.72 47.7979 180.294 61.7594 174.921 75.2303C168.277 91.8888 159.199 106.562 148.669 117.662L148.084 117.153C158.564 106.106 167.6 91.4978 174.217 74.9081C180.196 59.9164 183.753 44.3152 184.507 29.7981L185.254 29.923C185.174 31.4562 185.064 33.001 184.922 34.5574Z" fill="#F2F2F2"/>
<path d="M189.712 111.456C174.922 134.97 156.978 151.771 139.186 158.763L138.826 158.104C156.495 151.16 174.333 134.445 189.056 111.038L189.712 111.456Z" fill="#F2F2F2"/>
<path d="M184.564 51.0424C183.361 64.2829 179.935 78.2443 174.562 91.7153C167.918 108.374 158.84 123.047 148.31 134.147L147.725 133.638C158.205 122.591 167.241 107.983 173.858 91.3931C179.838 76.4014 183.394 60.8002 184.148 46.2831L184.895 46.408C184.816 47.9412 184.705 49.486 184.564 51.0424Z" fill="#F2F2F2"/>
<path d="M231.609 187.642C231.609 187.69 231.6 187.737 231.581 187.781C231.563 187.825 231.536 187.865 231.503 187.899C231.469 187.933 231.429 187.96 231.385 187.978C231.341 187.996 231.293 188.005 231.246 188.005H0.479224C0.382923 188.005 0.290569 187.967 0.222474 187.899C0.154379 187.831 0.116119 187.739 0.116119 187.642C0.116119 187.546 0.154379 187.454 0.222474 187.386C0.290569 187.318 0.382923 187.279 0.479224 187.279H231.246C231.293 187.279 231.341 187.289 231.385 187.307C231.429 187.325 231.469 187.352 231.503 187.385C231.536 187.419 231.563 187.459 231.581 187.503C231.6 187.547 231.609 187.595 231.609 187.642Z" fill="#CCCCCC"/>
<path d="M60.9905 165.426L60.3853 157.014C56.4206 155.033 52.0321 154.05 47.6007 154.149C53.835 158.964 53.3357 168.589 57.6533 175.176C59.0156 177.22 60.8208 178.931 62.9351 180.183C65.0494 181.435 67.4185 182.196 69.8669 182.409L75.0553 185.392C75.6489 181.472 75.3849 177.47 74.2816 173.661C73.1783 169.853 71.262 166.329 68.6646 163.332C67.1908 161.665 65.5129 160.191 63.6703 158.943C62.5362 162.196 60.9905 165.426 60.9905 165.426Z" fill="#F2F2F2"/>
<path d="M116.092 63.5065C116.005 63.4233 115.889 63.377 115.769 63.377C115.648 63.377 115.532 63.4233 115.445 63.5065C114.215 64.4869 113.11 65.6147 112.155 66.8645C111.921 66.4112 111.686 65.958 111.452 65.5048C111.181 64.9816 110.391 65.4438 110.662 65.9665C111.004 66.6294 111.347 67.2923 111.69 67.9552C111.731 68.0229 111.79 68.0788 111.859 68.1176C111.928 68.1564 112.006 68.1768 112.085 68.1768C112.165 68.1768 112.243 68.1564 112.312 68.1176C112.381 68.0788 112.439 68.0229 112.481 67.9552C113.498 66.5232 114.714 65.2431 116.092 64.1533C116.178 64.0672 116.225 63.951 116.225 63.8299C116.225 63.7088 116.178 63.5926 116.092 63.5065Z" fill="white"/>
<path d="M87.1756 82.3491L78.4332 68.6292L88.5567 63.2113L91.2137 73.679L109.935 83.7885C110.674 83.5227 111.475 83.4775 112.239 83.6585C113.003 83.8395 113.699 84.2388 114.24 84.8078C114.781 85.3768 115.145 86.0908 115.287 86.8628C115.429 87.6349 115.343 88.4315 115.04 89.1557C114.737 89.8799 114.23 90.5003 113.58 90.9412C112.93 91.3822 112.166 91.6247 111.38 91.6391C110.595 91.6535 109.822 91.4392 109.156 91.0224C108.491 90.6056 107.961 90.0043 107.631 89.2917L87.1756 82.3491Z" fill="#A0616A"/>
<path d="M72.0459 52.1734C69.299 56.2037 79.0608 70.8535 79.0608 70.8535C79.5363 69.8291 84.0823 81.3323 84.8437 80.6528C87.0077 78.7215 90.3952 73.342 92.2782 73.1022C93.3551 72.965 89.7808 65.3333 89.7808 65.3333C89.7808 65.3333 88.1472 60.8268 85.9306 55.0702C85.3341 53.4311 84.3324 51.9695 83.0185 50.8213C81.7047 49.6732 80.1216 48.8759 78.4165 48.5037C78.4165 48.5037 74.7928 48.1431 72.0459 52.1734Z" fill="#3F3D56"/>
<path d="M72.1801 183.482L76.332 183.481L78.3071 167.478L72.1792 167.478L72.1801 183.482Z" fill="#A0616A"/>
<path d="M71.1208 182.127L72.2895 182.127L76.8521 180.273L79.2975 182.127H79.2979C80.6798 182.127 82.0052 182.675 82.9824 183.652C83.9596 184.628 84.5086 185.953 84.5087 187.334V187.503L71.1211 187.503L71.1208 182.127Z" fill="#2F2E41"/>
<path d="M91.4691 183.482L95.621 183.481L97.5964 167.478L91.4685 167.478L91.4691 183.482Z" fill="#A0616A"/>
<path d="M90.4101 182.127L91.5787 182.127L96.1414 180.273L98.5868 182.127H98.5871C99.9691 182.127 101.294 182.675 102.272 183.652C103.249 184.628 103.798 185.953 103.798 187.334V187.503L90.4103 187.503L90.4101 182.127Z" fill="#2F2E41"/>
<path d="M93.2663 95.9888L66.2602 96.6635C61.1311 99.4473 61.0533 105.473 62.7338 112.627C62.7338 112.627 62.1665 116.879 63.3011 118.012C64.4358 119.146 65.0031 119.146 64.4358 121.131C63.8685 123.115 66.8659 126.356 66.5019 126.72C66.1378 127.083 65.2868 129.068 65.2868 129.068L68.1234 145.225C68.1234 145.225 70.1091 173.289 70.6764 173.856C71.2438 174.423 71.8111 173.856 71.2438 175.273C70.6764 176.69 70.1091 176.123 70.6764 176.69C71.179 177.232 71.6524 177.8 72.0948 178.391H78.953C78.953 178.391 79.4701 175.557 79.4701 175.273C79.4701 174.99 80.0374 173.289 80.0374 173.005C80.0374 172.722 79.536 172.221 79.536 172.221C79.3627 171.645 79.2456 171.053 79.1864 170.454C79.1864 169.887 77.4844 148.06 77.4844 148.06L80.8884 119.713L89.1147 147.493C89.1147 147.493 89.1147 171.871 89.682 172.438C90.2493 173.005 90.2493 172.722 89.9657 173.856C89.682 174.99 88.5473 174.706 89.3983 175.557C90.2493 176.407 90.533 174.99 90.2493 176.407L89.9657 177.824L98.4756 177.946C98.4756 177.946 99.6103 175.557 99.043 174.706C98.4756 173.856 98.5097 174.088 99.2018 172.696C99.894 171.305 100.178 171.021 99.894 170.738C99.6103 170.454 99.6103 168.946 99.6103 168.946L98.192 141.824C98.192 141.824 97.9083 113.194 97.9083 112.343C97.8869 111.906 97.9676 111.469 98.1439 111.068V109.914L97.0573 105.823L93.2663 95.9888Z" fill="#2F2E41"/>
<path d="M77.0434 39.8727C81.6776 39.8727 85.4343 36.1185 85.4343 31.4876C85.4343 26.8566 81.6776 23.1024 77.0434 23.1024C72.4092 23.1024 68.6524 26.8566 68.6524 31.4876C68.6524 36.1185 72.4092 39.8727 77.0434 39.8727Z" fill="#A0616A"/>
<path d="M81.2389 45.4147C83.0466 46.4886 84.128 48.4619 84.7487 50.4698C85.898 54.1873 86.5897 58.0308 86.8088 61.9155L87.4644 73.5454L95.5847 98.309C88.5471 104.26 62.0939 99.6614 62.0939 99.6614C62.0939 99.6614 61.2819 99.3909 62.0939 98.5794C62.9059 97.768 63.6964 98.4869 62.8844 97.6754C62.0724 96.8639 62.6322 97.768 62.9028 96.9565C63.1735 96.145 62.9028 96.686 62.6322 96.4155C62.3615 96.145 64.7276 93.7106 64.7276 93.7106L62.5622 79.4961L59.8554 50.8244C63.1036 46.7671 69.636 44.3753 69.636 44.3753L71.3238 41.3392L79.7633 42.0139L81.2389 45.4147Z" fill="#3F3D56"/>
<path d="M83.9604 27.0327C84.6126 27.5188 85.0957 28.197 85.3419 28.9719C85.4364 27.7055 85.4424 26.4341 85.3598 25.1669C85.2609 24.2765 84.6336 24.0762 83.9072 23.8441C83.2511 23.6344 82.5092 23.3975 82.3096 22.5331C79.672 19.9689 75.0804 20.0982 71.938 20.9926C70.2089 21.4848 69.214 22.1172 69.125 22.4876L69.1065 22.5639L69.0363 22.599C67.7035 23.2649 67.444 25.3679 67.4612 27.0147C67.4936 30.1175 68.5657 33.6415 69.1696 33.9278C69.2016 33.9429 69.2097 33.937 69.2236 33.9255C70.1329 33.1992 71.2424 33.9807 71.73 34.4055C72.0176 32.477 72.9435 30.7005 74.36 29.3597C75.7765 28.0188 77.6017 27.1909 79.5442 27.0083C80.1786 26.947 80.8079 26.8416 81.4276 26.6927C81.7419 26.6115 82.065 26.5691 82.3897 26.5666C82.9486 26.5581 83.4967 26.7207 83.9604 27.0327Z" fill="#2F2E41"/>
<path d="M136.05 102.67L152.192 86.2905L156.444 73.1903L149.601 70.4242C146.211 73.8414 142.721 84.3025 142.721 84.3025L131.704 99.0783C131.616 99.111 131.528 99.1455 131.442 99.1863C130.935 99.4257 130.498 99.7917 130.174 100.249C129.849 100.706 129.649 101.24 129.591 101.797C129.533 102.355 129.62 102.918 129.844 103.432C130.067 103.946 130.42 104.394 130.867 104.732C131.314 105.07 131.841 105.287 132.397 105.362C132.953 105.437 133.519 105.368 134.04 105.161C134.561 104.953 135.02 104.615 135.372 104.179C135.724 103.743 135.958 103.223 136.05 102.67Z" fill="#FFB8B8"/>
<path d="M147.734 71.9228L156.388 74.4246L156.421 74.4184C159.602 73.8011 162.118 68.5181 163.669 64.195C164.179 62.769 164.129 61.2027 163.527 59.8127C162.926 58.4226 161.819 57.3126 160.43 56.7069C159.403 56.267 158.272 56.1232 157.167 56.2916C156.062 56.46 155.026 56.9339 154.176 57.6598L149.861 61.3729L147.734 71.9228Z" fill="#6C63FF"/>
<path d="M140.33 182.995L135.675 182.994L133.461 165.055L140.33 165.055L140.33 182.995Z" fill="#FFB8B8"/>
<path d="M141.517 181.476L140.207 181.476L135.092 179.398L132.351 181.476H132.35C130.801 181.476 129.315 182.091 128.22 183.186C127.125 184.28 126.509 185.765 126.509 187.313V187.503L141.517 187.503L141.517 181.476Z" fill="#2F2E41"/>
<path d="M160.982 182.995L156.327 182.994L154.113 165.055L160.983 165.055L160.982 182.995Z" fill="#FFB8B8"/>
<path d="M162.169 181.476L160.859 181.476L155.744 179.398L153.003 181.476H153.002C151.453 181.476 149.968 182.091 148.872 183.186C147.777 184.28 147.161 185.765 147.161 187.313V187.503L162.169 187.503L162.169 181.476Z" fill="#2F2E41"/>
<path d="M168.079 105.721C168.079 105.721 168.622 112.238 167.263 118.484C165.905 124.73 165.905 142.319 165.905 142.319L162.916 176.595L153.948 175.781L151.503 118.484L142.807 137.764L143.622 140.479L142.536 141.158C142.536 141.158 143.35 146.453 142.807 146.453C142.263 146.453 140.905 147.268 140.905 147.268L141.992 175.238L132.753 174.966L129.492 135.592L133.024 113.053L133.296 108.708L134.519 108.758L135.142 106.943L136.285 103.82L168.079 105.721Z" fill="#2F2E41"/>
<path d="M168.548 107.09L168.597 107.022C171.183 103.403 167.293 94.7077 166.706 93.4471L169.178 92.6457L168.621 87.9187L168.357 85.8112L170.246 83.9238L170.252 83.8767L171.338 74.3725L172.919 68.0599C173.514 65.6735 173.464 63.1717 172.772 60.8114C172.08 58.4511 170.772 56.3172 168.983 54.6289L165.329 51.1869L160.89 44.6224H153.73L151.276 49.256C148.896 49.8057 146.784 51.1723 145.309 53.1178C143.833 55.0633 143.088 57.4643 143.202 59.9027L143.758 72.0552L141.58 87.1861L141.579 89.9244L139.128 92.6465L139.663 95.3208L137.798 96.1197L136.974 99.9606C136.633 100.41 134.383 103.408 134.383 104.228C134.383 104.351 134.474 104.47 134.669 104.602C136.202 105.639 144.677 107.754 148.428 106.254C152.423 104.658 168.306 107.053 168.466 107.077L168.548 107.09Z" fill="#DD702D"/>
<path d="M156.385 42.5033C161.622 42.5033 165.867 38.2611 165.867 33.0281C165.867 27.7951 161.622 23.553 156.385 23.553C151.149 23.553 146.904 27.7951 146.904 33.0281C146.904 38.2611 151.149 42.5033 156.385 42.5033Z" fill="#FFB8B8"/>
<path d="M155.477 42.6567C156.945 42.6417 158.41 42.5014 159.854 42.2373C161.284 41.908 164.44 39.4699 165.3 38.0296C165.938 36.9594 166.322 35.3041 166.531 34.104C166.814 32.5158 166.759 30.886 166.371 29.3201C165.984 27.7542 165.271 26.2872 164.28 25.014C163.897 24.4807 163.378 24.0604 162.777 23.7978C162.723 23.7785 162.669 23.7617 162.614 23.7475C161.742 23.5421 160.951 23.081 160.343 22.4234C160.225 22.2903 160.098 22.1658 159.962 22.051C159.28 21.5055 158.479 21.1289 157.624 20.9522C156.242 20.6206 154.265 21.0361 151.749 22.1883C150.485 22.7672 149.081 22.6057 148 22.4004C147.939 22.3903 147.877 22.3962 147.819 22.4176C147.762 22.439 147.711 22.4751 147.672 22.5223C147.225 22.9634 146.628 23.2193 146 23.2385C145.616 23.2653 145.227 23.8076 144.757 24.5137C144.651 24.674 144.526 24.8611 144.436 24.9753L144.418 24.7609L144.207 25.0061C143.875 25.3914 143.646 25.8544 143.541 26.352C143.436 26.8496 143.459 27.3656 143.608 27.852C143.756 28.3384 144.025 28.7793 144.39 29.1337C144.755 29.4881 145.204 29.7444 145.695 29.8788C146.084 29.9717 146.482 30.0245 146.882 30.0366C147.125 30.0521 147.375 30.0682 147.616 30.1036C148.39 30.2413 149.115 30.5771 149.721 31.0784C150.326 31.5797 150.791 32.2293 151.07 32.9637C151.136 33.1335 151.24 33.2858 151.374 33.4089C151.508 33.5321 151.669 33.6228 151.844 33.6741C152.019 33.7253 152.203 33.7358 152.382 33.7046C152.562 33.6734 152.732 33.6013 152.879 33.4941C153.124 33.2932 153.414 33.1545 153.724 33.0897C154.034 33.025 154.355 33.0362 154.66 33.1223C154.925 33.2608 155.134 33.4862 155.253 33.7606C155.396 34.0661 155.628 34.322 155.917 34.4956C156.904 34.9724 157.029 37.1942 156.727 39.0569C156.436 40.8523 155.802 42.1621 155.187 42.2419C154.713 42.3033 154.659 42.3384 154.627 42.4233L154.598 42.4993L154.654 42.5682C154.918 42.6565 155.199 42.6867 155.477 42.6567Z" fill="#2F2E41"/>
<path d="M147.61 72.9362L143.053 67.1331C138.41 68.4106 130.173 75.7478 130.173 75.7478L113.256 83.0839C112.691 82.9891 112.112 83.0446 111.575 83.2448C111.039 83.4451 110.565 83.7829 110.201 84.2245C109.837 84.666 109.595 85.1956 109.501 85.7599C109.407 86.3243 109.463 86.9035 109.664 87.4392C109.865 87.9749 110.204 88.4483 110.646 88.8116C111.089 89.175 111.619 89.4155 112.184 89.5089C112.748 89.6024 113.328 89.5455 113.864 89.344C114.4 89.1425 114.873 88.8035 115.236 88.3611L137.397 82.1829L147.61 72.9362Z" fill="#FFB8B8"/>
<path d="M146.518 74.2628L153.709 66.2519L154.109 60.5755C154.183 59.4609 153.944 58.3477 153.418 57.3617C152.893 56.3758 152.102 55.5563 151.134 54.9961C149.818 54.2454 148.266 54.0222 146.792 54.3715C145.317 54.7208 144.03 55.6166 143.191 56.8777C140.65 60.7047 137.917 65.8788 139.323 68.796L139.338 68.8256L146.518 74.2628Z" fill="#DD702D"/>
<path d="M73.3874 87.1914L70.8206 85.8777C70.6831 85.7798 70.5854 85.6357 70.5454 85.4717C70.5054 85.3078 70.5258 85.1349 70.6027 84.9847C70.6797 84.8345 70.8082 84.717 70.9647 84.6536C71.1212 84.5903 71.2953 84.5853 71.4552 84.6395L74.022 85.9532C74.1595 86.0511 74.2572 86.1952 74.2972 86.3592C74.3372 86.5231 74.3169 86.696 74.2399 86.8462C74.1629 86.9964 74.0344 87.1139 73.8779 87.1773C73.7214 87.2406 73.5473 87.2456 73.3874 87.1914Z" fill="#6C63FF"/>
<path d="M64.7488 83.6718L60.5263 67.9633L71.8098 65.8289L71.2031 76.611L86.0286 91.8659C86.8135 91.8339 87.5908 92.0307 88.2656 92.4324C88.9405 92.8342 89.4838 93.4235 89.8293 94.1284C90.1748 94.8334 90.3076 95.6236 90.2115 96.4027C90.1153 97.1818 89.7945 97.9161 89.2879 98.5161C88.7814 99.1161 88.1111 99.5558 87.3588 99.7817C86.6065 100.008 85.8047 100.01 85.0511 99.7882C84.2975 99.5666 83.6248 99.1306 83.1148 98.5335C82.6049 97.9364 82.2799 97.204 82.1793 96.4254L64.7488 83.6718Z" fill="#A0616A"/>
<path d="M59.3717 50.3508C55.5417 53.3723 60.4575 70.2734 60.4575 70.2734C61.2186 69.4387 62.1031 81.7748 63.0334 81.3547C65.6774 80.1609 70.5234 76.0442 72.3917 76.3798C73.4601 76.5717 72.3407 68.2201 72.3407 68.2201C72.3407 68.2201 72.1349 63.4315 71.7479 57.2755C71.6708 55.5331 71.1538 53.8385 70.2451 52.3495C69.3363 50.8604 68.0653 49.6254 66.5504 48.7593C66.5504 48.7593 63.2017 47.3293 59.3717 50.3508Z" fill="#3F3D56"/>
<path d="M116.891 28.7433L116.165 28.8227C112.928 16.1124 106.655 7.30689 98.0216 3.35786C87.0468 -1.66206 73.476 1.70891 59.809 12.8499C46.0726 24.0478 33.9122 41.7357 25.5682 62.656L24.8639 62.3339C33.2445 41.3222 45.4672 23.5489 59.2807 12.2887C73.1634 0.971656 87.0112 -2.42403 98.273 2.72733C107.154 6.78952 113.592 15.7857 116.891 28.7433Z" fill="#F2F2F2"/>
<path d="M36.8025 45.2968C34.904 49.2932 33.0984 53.4336 31.4355 57.6027C21.8665 81.5942 17.0173 106.096 17.4136 128.46L16.6657 128.381C16.269 105.933 21.1321 81.3469 30.7311 57.2805C32.3988 53.0997 34.2096 48.9477 36.1135 44.9399L36.8025 45.2968Z" fill="#F2F2F2"/>
<path d="M36.4435 61.7818C34.5451 65.7782 32.7394 69.9186 31.0765 74.0877C21.5075 98.0792 16.6583 122.581 17.0546 144.945L16.3067 144.866C15.9101 122.418 20.7732 97.8319 30.3722 73.7655C32.0398 69.5847 33.8506 65.4326 35.7545 61.4249L36.4435 61.7818Z" fill="#F2F2F2"/>
</g>
<defs>
<clipPath id="clip0_25_381">
<rect width="231.493" height="187.624" fill="white" transform="translate(0.116119 0.381348)"/>
</clipPath>
</defs>
</svg>
