<svg width="133" height="133" viewBox="0 0 133 133" fill="none" xmlns="http://www.w3.org/2000/svg">
<path d="M66.5 88.6667L88.6667 66.5L66.5 44.3334L58.7417 52.0917L67.6083 60.9584H44.3333V72.0417H67.6083L58.7417 80.9084L66.5 88.6667ZM66.5 121.917C58.834 121.917 51.6298 120.461 44.8875 117.55C38.1451 114.642 32.2802 110.695 27.2927 105.707C22.3052 100.72 18.3577 94.8549 15.4501 88.1125C12.5389 81.3702 11.0833 74.166 11.0833 66.5C11.0833 58.8341 12.5389 51.6299 15.4501 44.8875C18.3577 38.1452 22.3052 32.2803 27.2927 27.2928C32.2802 22.3053 38.1451 18.3559 44.8875 15.4447C51.6298 12.5371 58.834 11.0834 66.5 11.0834C74.166 11.0834 81.3701 12.5371 88.1125 15.4447C94.8548 18.3559 100.72 22.3053 105.707 27.2928C110.695 32.2803 114.642 38.1452 117.55 44.8875C120.461 51.6299 121.917 58.8341 121.917 66.5C121.917 74.166 120.461 81.3702 117.55 88.1125C114.642 94.8549 110.695 100.72 105.707 105.707C100.72 110.695 94.8548 114.642 88.1125 117.55C81.3701 120.461 74.166 121.917 66.5 121.917ZM66.5 110.833C78.8764 110.833 89.3594 106.539 97.9489 97.949C106.539 89.3594 110.833 78.8764 110.833 66.5C110.833 54.1237 106.539 43.6407 97.9489 35.0511C89.3594 26.4615 78.8764 22.1667 66.5 22.1667C54.1236 22.1667 43.6406 26.4615 35.051 35.0511C26.4614 43.6407 22.1666 54.1237 22.1666 66.5C22.1666 78.8764 26.4614 89.3594 35.051 97.949C43.6406 106.539 54.1236 110.833 66.5 110.833Z" fill="#DD702D"/>
</svg>
