<svg width="153" height="152" viewBox="0 0 153 152" fill="none" xmlns="http://www.w3.org/2000/svg">
<path d="M26.0029 94.6821C20.7428 94.6821 16.2717 92.841 12.5896 89.159C8.90751 85.4769 7.06647 81.0058 7.06647 75.7457C7.06647 70.4855 8.90751 66.0144 12.5896 62.3324C16.2717 58.6503 20.7428 56.8092 26.0029 56.8092V44.185C26.0029 40.7133 27.2401 37.7424 29.7144 35.2722C32.1846 32.7979 35.1555 31.5607 38.6272 31.5607H57.5636C57.5636 26.3006 59.4046 21.8295 63.0867 18.1474C66.7688 14.4653 71.2399 12.6243 76.5 12.6243C81.7601 12.6243 86.2312 14.4653 89.9133 18.1474C93.5954 21.8295 95.4364 26.3006 95.4364 31.5607H114.373C117.845 31.5607 120.818 32.7979 123.292 35.2722C125.762 37.7424 126.997 40.7133 126.997 44.185V56.8092C132.257 56.8092 136.728 58.6503 140.41 62.3324C144.092 66.0144 145.934 70.4855 145.934 75.7457C145.934 81.0058 144.092 85.4769 140.41 89.159C136.728 92.841 132.257 94.6821 126.997 94.6821V119.931C126.997 123.402 125.762 126.375 123.292 128.85C120.818 131.32 117.845 132.555 114.373 132.555H38.6272C35.1555 132.555 32.1846 131.32 29.7144 128.85C27.2401 126.375 26.0029 123.402 26.0029 119.931V94.6821ZM57.5636 82.0578C60.1936 82.0578 62.4281 81.1362 64.2671 79.2931C66.1102 77.4541 67.0318 75.2196 67.0318 72.5896C67.0318 69.9595 66.1102 67.725 64.2671 65.8861C62.4281 64.0429 60.1936 63.1214 57.5636 63.1214C54.9335 63.1214 52.699 64.0429 50.8601 65.8861C49.0169 67.725 48.0954 69.9595 48.0954 72.5896C48.0954 75.2196 49.0169 77.4541 50.8601 79.2931C52.699 81.1362 54.9335 82.0578 57.5636 82.0578ZM95.4364 82.0578C98.0665 82.0578 100.301 81.1362 102.14 79.2931C103.983 77.4541 104.905 75.2196 104.905 72.5896C104.905 69.9595 103.983 67.725 102.14 65.8861C100.301 64.0429 98.0665 63.1214 95.4364 63.1214C92.8064 63.1214 90.5719 64.0429 88.7329 65.8861C86.8898 67.725 85.9682 69.9595 85.9682 72.5896C85.9682 75.2196 86.8898 77.4541 88.7329 79.2931C90.5719 81.1362 92.8064 82.0578 95.4364 82.0578ZM57.5636 107.306H95.4364C97.2249 107.306 98.725 106.7 99.937 105.488C101.145 104.281 101.749 102.783 101.749 100.994C101.749 99.2058 101.145 97.7056 99.937 96.4937C98.725 95.2859 97.2249 94.6821 95.4364 94.6821H57.5636C55.7751 94.6821 54.2771 95.2859 53.0693 96.4937C51.8574 97.7056 51.2514 99.2058 51.2514 100.994C51.2514 102.783 51.8574 104.281 53.0693 105.488C54.2771 106.7 55.7751 107.306 57.5636 107.306ZM38.6272 119.931H114.373V44.185H38.6272V119.931ZM38.6272 119.931V44.185V119.931Z" fill="#363636"/>
</svg>
