<svg width="35" height="35" viewBox="0 0 35 35" fill="none" xmlns="http://www.w3.org/2000/svg">
<path d="M32.2778 35L20.0278 22.75C19.0556 23.5278 17.9375 24.1435 16.6736 24.5972C15.4097 25.0509 14.0648 25.2778 12.6389 25.2778C9.10648 25.2778 6.11722 24.0547 3.67111 21.6086C1.2237 19.1612 0 16.1713 0 12.6389C0 9.10648 1.2237 6.11657 3.67111 3.66917C6.11722 1.22306 9.10648 0 12.6389 0C16.1713 0 19.1612 1.22306 21.6086 3.66917C24.0547 6.11657 25.2778 9.10648 25.2778 12.6389C25.2778 14.0648 25.0509 15.4097 24.5972 16.6736C24.1435 17.9375 23.5278 19.0556 22.75 20.0278L35 32.2778L32.2778 35ZM12.6389 21.3889C15.0694 21.3889 17.1357 20.5385 18.8378 18.8378C20.5385 17.1357 21.3889 15.0694 21.3889 12.6389C21.3889 10.2083 20.5385 8.14204 18.8378 6.44C17.1357 4.73926 15.0694 3.88889 12.6389 3.88889C10.2083 3.88889 8.14204 4.73926 6.44 6.44C4.73926 8.14204 3.88889 10.2083 3.88889 12.6389C3.88889 15.0694 4.73926 17.1357 6.44 18.8378C8.14204 20.5385 10.2083 21.3889 12.6389 21.3889Z" fill="#A61D2F"/>
</svg>
