<svg width="488" height="129" viewBox="0 0 488 129" fill="none" xmlns="http://www.w3.org/2000/svg">
<g clip-path="url(#clip0_6_4)">
<path d="M299.575 44.5645C299.575 46.0091 299.001 47.3945 297.979 48.416C296.958 49.4375 295.572 50.0113 294.128 50.0113H256C254.555 50.0113 253.17 49.4375 252.149 48.416C251.127 47.3945 250.553 46.0091 250.553 44.5645V6.43686C250.553 4.99228 251.127 3.60686 252.149 2.58538C253.17 1.56391 254.555 0.990051 256 0.990051L294.128 0.990051C295.572 0.990051 296.958 1.56391 297.979 2.58538C299.001 3.60686 299.575 4.99228 299.575 6.43686V44.5645Z" fill="#DD702D"/>
<path d="M267.192 14.091C267.192 11.9804 268.247 10.4185 270.484 10.4185H280.955C282.981 10.4185 283.953 11.8537 283.953 13.3325C283.953 14.7678 282.94 16.2452 280.955 16.2452H273.525V22.4096H280.449C282.519 22.4096 283.532 23.8449 283.532 25.3237C283.532 26.7589 282.477 28.2364 280.449 28.2364H273.525V34.6541H281.336C283.362 34.6541 284.333 36.0907 284.333 37.5681C284.333 39.0047 283.32 40.4822 281.336 40.4822H270.444C268.586 40.4822 267.193 39.2158 267.193 37.3162V14.091H267.192Z" fill="white"/>
</g>
<g clip-path="url(#clip1_6_4)">
<path d="M362.213 44.5645C362.213 46.0091 361.639 47.3945 360.617 48.416C359.596 49.4375 358.211 50.0113 356.766 50.0113H318.638C317.194 50.0113 315.808 49.4375 314.787 48.416C313.765 47.3945 313.192 46.0091 313.192 44.5645V6.43686C313.192 4.99228 313.765 3.60686 314.787 2.58538C315.808 1.56391 317.194 0.990051 318.638 0.990051L356.766 0.990051C358.211 0.990051 359.596 1.56391 360.617 2.58538C361.639 3.60686 362.213 4.99228 362.213 6.43686V44.5645Z" fill="#A61D2F"/>
<path d="M325.448 16.179C325.448 14.2985 326.74 13.2454 328.477 13.2454C329.244 13.2454 330.496 13.8095 331.022 14.4865L343.821 30.3996H343.902V16.179C343.902 14.2985 345.194 13.2454 346.928 13.2454C348.666 13.2454 349.957 14.2985 349.957 16.179V37.5457C349.957 39.4275 348.666 40.4794 346.928 40.4794C346.163 40.4794 344.952 39.9152 344.385 39.2395L331.586 23.5144H331.505V37.5457C331.505 39.4275 330.213 40.4794 328.476 40.4794C326.739 40.4794 325.447 39.4275 325.447 37.5457V16.179H325.448Z" fill="white"/>
<path d="M328.17 8.47941C329.386 6.93805 333.131 4.78015 338.383 8.47941C343.635 12.1787 347.38 10.0208 348.596 8.47941" stroke="white" stroke-width="2" stroke-linecap="round"/>
</g>
<g clip-path="url(#clip2_6_4)">
<path d="M424.851 44.5645C424.851 46.0091 424.277 47.3945 423.256 48.416C422.234 49.4375 420.849 50.0113 419.404 50.0113H381.277C379.832 50.0113 378.447 49.4375 377.425 48.416C376.404 47.3945 375.83 46.0091 375.83 44.5645V6.43686C375.83 4.99228 376.404 3.60686 377.425 2.58538C378.447 1.56391 379.832 0.990051 381.277 0.990051L419.404 0.990051C420.849 0.990051 422.234 1.56391 423.256 2.58538C424.277 3.60686 424.851 4.99228 424.851 6.43686V44.5645Z" fill="#3B88C3"/>
<path d="M385.819 25.4489C385.819 16.6673 391.73 9.91193 400.343 9.91193C408.829 9.91193 414.867 16.8784 414.867 25.4489C414.867 34.1884 408.998 40.986 400.343 40.986C391.773 40.986 385.819 34.1884 385.819 25.4489ZM408.282 25.4489C408.282 20.3398 405.621 15.7387 400.343 15.7387C395.065 15.7387 392.406 20.3398 392.406 25.4489C392.406 30.5989 394.981 35.1606 400.343 35.1606C405.706 35.1606 408.282 30.5989 408.282 25.4489Z" fill="white"/>
</g>
<rect x="376.33" y="1.49005" width="48.0213" height="48.0213" stroke="white"/>
<g clip-path="url(#clip3_6_4)">
<path d="M487.489 44.5645C487.489 46.0091 486.915 47.3945 485.894 48.416C484.873 49.4375 483.487 50.0113 482.043 50.0113H443.915C442.47 50.0113 441.085 49.4375 440.063 48.416C439.042 47.3945 438.468 46.0091 438.468 44.5645V6.43686C438.468 4.99228 439.042 3.60686 440.063 2.58538C441.085 1.56391 442.47 0.990051 443.915 0.990051L482.043 0.990051C483.487 0.990051 484.873 1.56391 485.894 2.58538C486.915 3.60686 487.489 4.99228 487.489 6.43686V44.5645Z" fill="#DD702D"/>
<path d="M471.319 14.1332C471.319 15.7795 470.222 17.2569 468.492 17.2569C466.762 17.2569 465.409 15.9906 462.875 15.9906C461.06 15.9906 459.414 16.9614 459.414 18.7357C459.414 23.0837 473.517 20.2976 473.517 31.1899C473.517 37.2277 468.534 40.9846 462.708 40.9846C459.456 40.9846 452.449 40.2248 452.449 36.2554C452.449 34.6091 453.546 33.2583 455.277 33.2583C457.261 33.2583 459.625 34.9046 462.37 34.9046C465.156 34.9046 466.677 33.3427 466.677 31.2729C466.677 26.2918 452.575 29.2889 452.575 19.4942C452.575 13.5831 457.43 9.91055 463.045 9.91055C465.409 9.91191 471.319 10.7984 471.319 14.1332Z" fill="white"/>
</g>
<g clip-path="url(#clip4_6_4)">
<path d="M299.575 123.543C299.575 124.988 299.001 126.373 297.979 127.395C296.958 128.416 295.572 128.99 294.128 128.99H256C254.555 128.99 253.17 128.416 252.149 127.395C251.127 126.373 250.553 124.988 250.553 123.543V85.4156C250.553 83.971 251.127 82.5856 252.149 81.5641C253.17 80.5426 254.555 79.9688 256 79.9688H294.128C295.572 79.9688 296.958 80.5426 297.979 81.5641C299.001 82.5856 299.575 83.971 299.575 85.4156V123.543Z" fill="#3B88C3"/>
<path d="M271.898 92.4365C271.898 90.3258 273.249 89.1439 275.065 89.1439C276.88 89.1439 278.231 90.3258 278.231 92.4365V116.417C278.231 118.529 276.88 119.71 275.065 119.71C273.25 119.71 271.898 118.529 271.898 116.417V92.4365Z" fill="white"/>
</g>
<rect x="251.053" y="80.4688" width="48.0213" height="48.0213" stroke="white"/>
<g clip-path="url(#clip5_6_4)">
<path d="M362.213 123.543C362.213 124.988 361.639 126.373 360.617 127.395C359.596 128.416 358.211 128.99 356.766 128.99H318.638C317.194 128.99 315.808 128.416 314.787 127.395C313.765 126.373 313.192 124.988 313.192 123.543V85.4156C313.192 83.971 313.765 82.5856 314.787 81.5641C315.808 80.5426 317.194 79.9688 318.638 79.9688H356.766C358.211 79.9688 359.596 80.5426 360.617 81.5641C361.639 82.5856 362.213 83.971 362.213 85.4156V123.543Z" fill="#DD702D"/>
<path d="M323.181 104.428C323.181 95.646 329.092 88.8906 337.705 88.8906C346.191 88.8906 352.229 95.8571 352.229 104.428C352.229 113.167 346.36 119.965 337.705 119.965C329.134 119.965 323.181 113.167 323.181 104.428ZM345.644 104.428C345.644 99.3185 342.983 94.7173 337.705 94.7173C332.427 94.7173 329.768 99.3185 329.768 104.428C329.768 109.578 332.343 114.139 337.705 114.139C343.067 114.139 345.644 109.578 345.644 104.428Z" fill="white"/>
</g>
<g clip-path="url(#clip6_6_4)">
<path d="M424.851 123.543C424.851 124.988 424.277 126.373 423.256 127.395C422.234 128.416 420.849 128.99 419.404 128.99H381.277C379.832 128.99 378.447 128.416 377.425 127.395C376.404 126.373 375.83 124.988 375.83 123.543V85.4156C375.83 83.971 376.404 82.5856 377.425 81.5641C378.447 80.5426 379.832 79.9688 381.277 79.9688H419.404C420.849 79.9688 422.234 80.5426 423.256 81.5641C424.277 82.5856 424.851 83.971 424.851 85.4156V123.543Z" fill="#A61D2F"/>
<path d="M408.681 93.1119C408.681 94.7582 407.583 96.2356 405.854 96.2356C404.123 96.2356 402.771 94.9693 400.237 94.9693C398.422 94.9693 396.775 95.9401 396.775 97.7144C396.775 102.062 410.879 99.2763 410.879 110.169C410.879 116.206 405.896 119.963 400.069 119.963C396.818 119.963 389.81 119.203 389.81 115.234C389.81 113.588 390.908 112.237 392.639 112.237C394.623 112.237 396.987 113.883 399.732 113.883C402.518 113.883 404.039 112.321 404.039 110.252C404.039 105.271 389.937 108.268 389.937 98.4729C389.937 92.5618 394.791 88.8893 400.407 88.8893C402.771 88.8906 408.681 89.7771 408.681 93.1119Z" fill="white"/>
</g>
<g clip-path="url(#clip7_6_4)">
<path d="M49.0213 44.5645C49.0213 46.0091 48.4474 47.3945 47.4259 48.416C46.4045 49.4375 45.0191 50.0113 43.5745 50.0113H5.44681C4.00223 50.0113 2.61681 49.4375 1.59533 48.416C0.573859 47.3945 0 46.0091 0 44.5645V6.43686C0 4.99228 0.573859 3.60686 1.59533 2.58538C2.61681 1.56391 4.00223 0.990051 5.44681 0.990051L43.5745 0.990051C45.0191 0.990051 46.4045 1.56391 47.4259 2.58538C48.4474 3.60686 49.0213 4.99228 49.0213 6.43686V44.5645Z" fill="#3B88C3"/>
<path d="M14.675 13.7111C14.675 11.7257 15.857 10.4185 17.969 10.4185H25.442C31.65 10.4185 36.2512 14.4723 36.2512 20.5087C36.2512 26.6731 31.4798 30.5159 25.6967 30.5159H21.011V37.4401C21.011 39.5521 19.6602 40.7327 17.8437 40.7327C16.0272 40.7327 14.6764 39.5521 14.6764 37.4401V13.7111H14.675ZM21.0083 24.9424H25.314C27.9748 24.9424 29.6633 23.0006 29.6633 20.4665C29.6633 17.9337 27.9748 15.9906 25.314 15.9906H21.0083V24.9424Z" fill="white"/>
</g>
<rect x="0.5" y="1.49005" width="48.0213" height="48.0213" stroke="white"/>
<g clip-path="url(#clip8_6_4)">
<path d="M111.66 44.5645C111.66 46.0091 111.086 47.3945 110.064 48.416C109.043 49.4375 107.657 50.0113 106.213 50.0113H68.0851C66.6405 50.0113 65.2551 49.4375 64.2336 48.416C63.2122 47.3945 62.6383 46.0091 62.6383 44.5645V6.43686C62.6383 4.99228 63.2122 3.60686 64.2336 2.58538C65.2551 1.56391 66.6405 0.990051 68.0851 0.990051L106.213 0.990051C107.657 0.990051 109.043 1.56391 110.064 2.58538C111.086 3.60686 111.66 4.99228 111.66 6.43686V44.5645Z" fill="#DD702D"/>
<path d="M79.2769 14.091C79.2769 11.9804 80.3322 10.4185 82.5695 10.4185H93.0396C95.0659 10.4185 96.0381 11.8537 96.0381 13.3325C96.0381 14.7678 95.025 16.2452 93.0396 16.2452H85.6102V22.4096H92.5344C94.6042 22.4096 95.6173 23.8449 95.6173 25.3237C95.6173 26.7589 94.562 28.2364 92.5344 28.2364H85.6102V34.6541H93.4209C95.4471 34.6541 96.418 36.0907 96.418 37.5681C96.418 39.0047 95.4049 40.4822 93.4209 40.4822H82.5287C80.6713 40.4822 79.2783 39.2158 79.2783 37.3162V14.091H79.2769Z" fill="white"/>
</g>
<g clip-path="url(#clip9_6_4)">
<path d="M174.298 44.5645C174.298 46.0091 173.724 47.3945 172.703 48.416C171.681 49.4375 170.296 50.0113 168.851 50.0113H130.723C129.279 50.0113 127.893 49.4375 126.872 48.416C125.85 47.3945 125.277 46.0091 125.277 44.5645V6.43686C125.277 4.99228 125.85 3.60686 126.872 2.58538C127.893 1.56391 129.279 0.990051 130.723 0.990051L168.851 0.990051C170.296 0.990051 171.681 1.56391 172.703 2.58538C173.724 3.60686 174.298 4.99228 174.298 6.43686V44.5645Z" fill="#A61D2F"/>
<path d="M157.221 39.1286C155.152 40.3106 152.662 40.986 149.79 40.986C141.219 40.986 135.266 34.1884 135.266 25.4489C135.266 16.6673 141.177 9.91193 149.79 9.91193C158.276 9.91193 164.314 16.8784 164.314 25.4489C164.314 29.1637 163.343 32.5421 161.484 35.2015L163.892 37.2712C164.695 37.9889 165.371 38.6643 165.371 39.8476C165.371 41.325 163.892 42.507 162.458 42.507C161.526 42.507 160.769 42.1271 159.628 41.1562L157.221 39.1286ZM156.716 30.8535C157.432 29.2481 157.729 27.3921 157.729 25.4489C157.729 20.4256 155.068 15.7387 149.79 15.7387C144.512 15.7387 141.853 20.3398 141.853 25.4489C141.853 30.5989 144.428 35.1606 149.79 35.1606C150.761 35.1606 151.649 35.0326 152.492 34.8638L150.972 33.3863C150.508 32.9628 150.17 32.2874 150.17 31.6978C150.17 30.0515 151.311 28.6585 153.04 28.6585C153.633 28.6585 154.138 28.8695 154.646 29.2072L156.716 30.8535Z" fill="white"/>
</g>
<g clip-path="url(#clip10_6_4)">
<path d="M236.936 44.5645C236.936 46.0091 236.362 47.3945 235.341 48.416C234.319 49.4375 232.934 50.0113 231.489 50.0113H193.362C191.917 50.0113 190.532 49.4375 189.51 48.416C188.489 47.3945 187.915 46.0091 187.915 44.5645V6.43686C187.915 4.99228 188.489 3.60686 189.51 2.58538C190.532 1.56391 191.917 0.990051 193.362 0.990051L231.489 0.990051C232.934 0.990051 234.319 1.56391 235.341 2.58538C236.362 3.60686 236.936 4.99228 236.936 6.43686V44.5645Z" fill="#3B88C3"/>
<path d="M198.809 13.4578C198.809 11.3471 200.398 10.1652 202.213 10.1652C204.028 10.1652 205.617 11.3471 205.617 13.4578V28.1928C205.617 32.0777 208.415 34.8964 212.426 34.8964C216.268 34.8964 219.234 31.9089 219.234 28.1928V13.4578C219.234 11.3471 220.825 10.1652 222.638 10.1652C224.455 10.1652 225.998 11.3471 225.998 13.4578V28.5305C225.998 35.6236 219.391 40.986 212.426 40.986C205.375 40.986 198.809 35.708 198.809 28.5305V13.4578Z" fill="white"/>
</g>
<rect x="188.415" y="1.49005" width="48.0213" height="48.0213" stroke="white"/>
<g clip-path="url(#clip11_6_4)">
<path d="M49.0213 123.543C49.0213 124.988 48.4474 126.373 47.4259 127.395C46.4045 128.416 45.0191 128.99 43.5745 128.99H5.44681C4.00223 128.99 2.61681 128.416 1.59533 127.395C0.573859 126.373 0 124.988 0 123.543V85.4156C0 83.971 0.573859 82.5856 1.59533 81.5641C2.61681 80.5426 4.00223 79.9688 5.44681 79.9688H43.5745C45.0191 79.9688 46.4045 80.5426 47.4259 81.5641C48.4474 82.5856 49.0213 83.971 49.0213 85.4156V123.543Z" fill="#A61D2F"/>
<path d="M26.8568 88.8906C29.9397 88.8906 35.934 89.9037 35.934 93.6198C35.934 95.1395 34.8786 96.4481 33.3168 96.4481C31.5847 96.4481 30.4041 94.9706 26.8568 94.9706C21.6225 94.9706 18.9195 99.4043 18.9195 104.554C18.9195 109.578 21.6633 113.885 26.8568 113.885C30.4041 113.885 31.8379 112.112 33.57 112.112C35.471 112.112 36.3574 114.011 36.3574 114.981C36.3574 119.035 29.982 119.963 26.8582 119.963C18.2877 119.963 12.3343 113.166 12.3343 104.426C12.3329 95.646 18.2441 88.8906 26.8568 88.8906Z" fill="white"/>
</g>
<g clip-path="url(#clip12_6_4)">
<path d="M111.66 123.543C111.66 124.988 111.086 126.373 110.064 127.395C109.043 128.416 107.657 128.99 106.213 128.99H68.0851C66.6405 128.99 65.2551 128.416 64.2336 127.395C63.2122 126.373 62.6383 124.988 62.6383 123.543V85.4156C62.6383 83.971 63.2122 82.5856 64.2336 81.5641C65.2551 80.5426 66.6405 79.9688 68.0851 79.9688H106.213C107.657 79.9688 109.043 80.5426 110.064 81.5641C111.086 82.5856 111.66 83.971 111.66 85.4156V123.543Z" fill="#3B88C3"/>
<path d="M82.7193 92.3943C83.4369 90.4525 85.0832 88.8906 87.2361 88.8906C89.4734 88.8906 91.038 90.3681 91.7542 92.3943L100.029 115.362C100.283 116.038 100.367 116.63 100.367 116.924C100.367 118.57 99.0162 119.71 97.4543 119.71C95.68 119.71 94.7935 118.781 94.3714 117.516L93.1037 113.547H81.3658L80.0994 117.474C79.6773 118.783 78.7908 119.71 77.0601 119.71C75.3716 119.71 73.9363 118.444 73.9363 116.755C73.9363 116.08 74.1474 115.573 74.2318 115.362L82.7193 92.3943ZM83.1823 107.722H91.2041L87.2783 95.4772H87.1939L83.1823 107.722Z" fill="white"/>
</g>
<rect x="63.1383" y="80.4688" width="48.0213" height="48.0213" stroke="white"/>
<g clip-path="url(#clip13_6_4)">
<path d="M174.298 123.543C174.298 124.988 173.724 126.373 172.703 127.395C171.681 128.416 170.296 128.99 168.851 128.99H130.723C129.279 128.99 127.893 128.416 126.872 127.395C125.85 126.373 125.277 124.988 125.277 123.543V85.4156C125.277 83.971 125.85 82.5856 126.872 81.5641C127.893 80.5426 129.279 79.9688 130.723 79.9688H168.851C170.296 79.9688 171.681 80.5426 172.703 81.5641C173.724 82.5856 174.298 83.971 174.298 85.4156V123.543Z" fill="#DD702D"/>
<path d="M136.407 92.3943C136.66 90.8746 138.307 89.1439 140.545 89.1439C142.656 89.1439 144.304 90.6636 144.768 92.1832L149.75 108.902H149.835L154.815 92.1832C155.279 90.6636 156.925 89.1439 159.037 89.1439C161.273 89.1439 162.921 90.8746 163.175 92.3943L167.101 115.954C167.143 116.208 167.143 116.461 167.143 116.671C167.143 118.529 165.793 119.71 164.104 119.71C161.95 119.71 161.107 118.739 160.812 116.755L158.32 99.5718H158.235L153.168 117.262C152.873 118.275 152.072 119.71 149.791 119.71C147.512 119.71 146.71 118.275 146.414 117.262L141.347 99.5718H141.263L138.771 116.756C138.476 118.74 137.631 119.711 135.478 119.711C133.79 119.711 132.439 118.531 132.439 116.672C132.439 116.462 132.439 116.208 132.481 115.956L136.407 92.3943Z" fill="white"/>
</g>
<g clip-path="url(#clip14_6_4)">
<path d="M236.936 123.543C236.936 124.988 236.362 126.373 235.341 127.395C234.319 128.416 232.934 128.99 231.489 128.99H193.362C191.917 128.99 190.532 128.416 189.51 127.395C188.489 126.373 187.915 124.988 187.915 123.543V85.4156C187.915 83.971 188.489 82.5856 189.51 81.5641C190.532 80.5426 191.917 79.9688 193.362 79.9688H231.489C232.934 79.9688 234.319 80.5426 235.341 81.5641C236.362 82.5856 236.936 83.971 236.936 85.4156V123.543Z" fill="#A61D2F"/>
<path d="M202.21 92.5631C202.21 90.5369 203.603 89.3972 205.545 89.3972H213.651C218.041 89.3972 221.59 92.3521 221.59 96.828C221.59 99.7829 220.364 101.768 217.661 103.035V103.119C221.252 103.626 224.079 106.623 224.079 110.297C224.079 116.25 220.111 119.459 214.284 119.459H205.588C203.645 119.459 202.21 118.235 202.21 116.251V92.5631ZM208.543 101.303H211.837C213.906 101.303 215.257 100.078 215.257 97.9664C215.257 95.9824 213.695 94.9693 211.837 94.9693H208.543V101.303ZM208.543 113.885H213.526C215.805 113.885 217.495 112.576 217.495 110.212C217.495 108.227 215.974 106.876 213.019 106.876H208.543V113.885Z" fill="white"/>
</g>
<defs>
<clipPath id="clip0_6_4">
<rect width="49.0213" height="49.0213" fill="white" transform="translate(250.553 0.990051)"/>
</clipPath>
<clipPath id="clip1_6_4">
<rect width="49.0213" height="49.0213" fill="white" transform="translate(313.192 0.990051)"/>
</clipPath>
<clipPath id="clip2_6_4">
<rect x="375.83" y="0.990051" width="49.0213" height="49.0213" fill="white"/>
</clipPath>
<clipPath id="clip3_6_4">
<rect width="49.0213" height="49.0213" fill="white" transform="translate(438.468 0.990051)"/>
</clipPath>
<clipPath id="clip4_6_4">
<rect x="250.553" y="79.9688" width="49.0213" height="49.0213" fill="white"/>
</clipPath>
<clipPath id="clip5_6_4">
<rect width="49.0213" height="49.0213" fill="white" transform="translate(313.192 79.9688)"/>
</clipPath>
<clipPath id="clip6_6_4">
<rect width="49.0213" height="49.0213" fill="white" transform="translate(375.83 79.9688)"/>
</clipPath>
<clipPath id="clip7_6_4">
<rect y="0.990051" width="49.0213" height="49.0213" fill="white"/>
</clipPath>
<clipPath id="clip8_6_4">
<rect width="49.0213" height="49.0213" fill="white" transform="translate(62.6383 0.990051)"/>
</clipPath>
<clipPath id="clip9_6_4">
<rect width="49.0213" height="49.0213" fill="white" transform="translate(125.277 0.990051)"/>
</clipPath>
<clipPath id="clip10_6_4">
<rect x="187.915" y="0.990051" width="49.0213" height="49.0213" fill="white"/>
</clipPath>
<clipPath id="clip11_6_4">
<rect width="49.0213" height="49.0213" fill="white" transform="translate(0 79.9688)"/>
</clipPath>
<clipPath id="clip12_6_4">
<rect x="62.6383" y="79.9688" width="49.0213" height="49.0213" fill="white"/>
</clipPath>
<clipPath id="clip13_6_4">
<rect width="49.0213" height="49.0213" fill="white" transform="translate(125.277 79.9688)"/>
</clipPath>
<clipPath id="clip14_6_4">
<rect width="49.0213" height="49.0213" fill="white" transform="translate(187.915 79.9688)"/>
</clipPath>
</defs>
</svg>
