<svg width="488" height="128" viewBox="0 0 488 128" fill="none" xmlns="http://www.w3.org/2000/svg">
<g clip-path="url(#clip0_25_884)">
<path d="M299.575 43.5745C299.575 45.0191 299.001 46.4045 297.979 47.4259C296.958 48.4474 295.572 49.0213 294.128 49.0213H256C254.555 49.0213 253.17 48.4474 252.149 47.4259C251.127 46.4045 250.553 45.0191 250.553 43.5745V5.44681C250.553 4.00223 251.127 2.61681 252.149 1.59533C253.17 0.573859 254.555 0 256 0L294.128 0C295.572 0 296.958 0.573859 297.979 1.59533C299.001 2.61681 299.575 4.00223 299.575 5.44681V43.5745Z" fill="#DD702D"/>
<path d="M267.192 13.1009C267.192 10.9903 268.247 9.42844 270.484 9.42844H280.955C282.981 9.42844 283.953 10.8637 283.953 12.3425C283.953 13.7777 282.94 15.2552 280.955 15.2552H273.525V21.4196H280.449C282.519 21.4196 283.532 22.8548 283.532 24.3336C283.532 25.7689 282.477 27.2463 280.449 27.2463H273.525V33.664H281.336C283.362 33.664 284.333 35.1006 284.333 36.5781C284.333 38.0147 283.32 39.4921 281.336 39.4921H270.444C268.586 39.4921 267.193 38.2257 267.193 36.3261V13.1009H267.192Z" fill="white"/>
</g>
<rect x="251.053" y="0.5" width="48.0213" height="48.0213" stroke="white"/>
<g clip-path="url(#clip1_25_884)">
<path d="M362.213 43.5745C362.213 45.0191 361.639 46.4045 360.617 47.4259C359.596 48.4474 358.21 49.0213 356.766 49.0213H318.638C317.194 49.0213 315.808 48.4474 314.787 47.4259C313.765 46.4045 313.191 45.0191 313.191 43.5745V5.44681C313.191 4.00223 313.765 2.61681 314.787 1.59533C315.808 0.573859 317.194 0 318.638 0L356.766 0C358.21 0 359.596 0.573859 360.617 1.59533C361.639 2.61681 362.213 4.00223 362.213 5.44681V43.5745Z" fill="#A61D2F"/>
<path d="M325.448 15.189C325.448 13.3084 326.74 12.2553 328.477 12.2553C329.244 12.2553 330.496 12.8195 331.022 13.4965L343.821 29.4096H343.902V15.189C343.902 13.3084 345.194 12.2553 346.928 12.2553C348.666 12.2553 349.957 13.3084 349.957 15.189V36.5557C349.957 38.4375 348.666 39.4894 346.928 39.4894C346.163 39.4894 344.952 38.9252 344.385 38.2494L331.586 22.5243H331.505V36.5557C331.505 38.4375 330.213 39.4894 328.476 39.4894C326.739 39.4894 325.447 38.4375 325.447 36.5557V15.189H325.448Z" fill="white"/>
<path d="M328.17 7.48936C329.386 5.948 333.131 3.7901 338.383 7.48936C343.635 11.1886 347.38 9.03072 348.596 7.48936" stroke="white" stroke-width="2" stroke-linecap="round"/>
</g>
<g clip-path="url(#clip2_25_884)">
<path d="M424.851 43.5745C424.851 45.0191 424.277 46.4045 423.256 47.4259C422.234 48.4474 420.849 49.0213 419.404 49.0213H381.277C379.832 49.0213 378.447 48.4474 377.425 47.4259C376.404 46.4045 375.83 45.0191 375.83 43.5745V5.44681C375.83 4.00223 376.404 2.61681 377.425 1.59533C378.447 0.573859 379.832 0 381.277 0L419.404 0C420.849 0 422.234 0.573859 423.256 1.59533C424.277 2.61681 424.851 4.00223 424.851 5.44681V43.5745Z" fill="#3B88C3"/>
<path d="M385.819 24.4589C385.819 15.6773 391.73 8.92188 400.343 8.92188C408.829 8.92188 414.867 15.8883 414.867 24.4589C414.867 33.1983 408.998 39.9959 400.343 39.9959C391.773 39.9959 385.819 33.1983 385.819 24.4589ZM408.282 24.4589C408.282 19.3498 405.621 14.7486 400.343 14.7486C395.065 14.7486 392.406 19.3498 392.406 24.4589C392.406 29.6089 394.981 34.1706 400.343 34.1706C405.706 34.1706 408.282 29.6089 408.282 24.4589Z" fill="white"/>
</g>
<g clip-path="url(#clip3_25_884)">
<path d="M487.489 43.5745C487.489 45.0191 486.915 46.4045 485.894 47.4259C484.872 48.4474 483.487 49.0213 482.042 49.0213H443.915C442.47 49.0213 441.085 48.4474 440.063 47.4259C439.042 46.4045 438.468 45.0191 438.468 43.5745V5.44681C438.468 4.00223 439.042 2.61681 440.063 1.59533C441.085 0.573859 442.47 0 443.915 0L482.042 0C483.487 0 484.872 0.573859 485.894 1.59533C486.915 2.61681 487.489 4.00223 487.489 5.44681V43.5745Z" fill="#DD702D"/>
<path d="M471.319 13.1431C471.319 14.7894 470.222 16.2669 468.492 16.2669C466.762 16.2669 465.409 15.0005 462.875 15.0005C461.06 15.0005 459.414 15.9714 459.414 17.7457C459.414 22.0936 473.517 19.3076 473.517 30.1998C473.517 36.2376 468.535 39.9945 462.708 39.9945C459.456 39.9945 452.449 39.2347 452.449 35.2654C452.449 33.6191 453.546 32.2682 455.277 32.2682C457.261 32.2682 459.625 33.9145 462.37 33.9145C465.156 33.9145 466.677 32.3527 466.677 30.2829C466.677 25.3018 452.575 28.2989 452.575 18.5042C452.575 12.593 457.43 8.9205 463.045 8.9205C465.409 8.92186 471.319 9.80833 471.319 13.1431Z" fill="white"/>
</g>
<rect x="438.968" y="0.5" width="48.0213" height="48.0213" stroke="white"/>
<g clip-path="url(#clip4_25_884)">
<path d="M299.575 122.553C299.575 123.998 299.001 125.383 297.979 126.405C296.958 127.426 295.572 128 294.128 128H256C254.555 128 253.17 127.426 252.149 126.405C251.127 125.383 250.553 123.998 250.553 122.553V84.4255C250.553 82.9809 251.127 81.5955 252.149 80.574C253.17 79.5526 254.555 78.9787 256 78.9787H294.128C295.572 78.9787 296.958 79.5526 297.979 80.574C299.001 81.5955 299.575 82.9809 299.575 84.4255V122.553Z" fill="#3B88C3"/>
<path d="M271.898 91.4464C271.898 89.3358 273.249 88.1538 275.065 88.1538C276.88 88.1538 278.231 89.3358 278.231 91.4464V115.427C278.231 117.539 276.88 118.72 275.065 118.72C273.25 118.72 271.898 117.539 271.898 115.427V91.4464Z" fill="white"/>
</g>
<g clip-path="url(#clip5_25_884)">
<path d="M362.213 122.553C362.213 123.998 361.639 125.383 360.617 126.405C359.596 127.426 358.21 128 356.766 128H318.638C317.194 128 315.808 127.426 314.787 126.405C313.765 125.383 313.191 123.998 313.191 122.553V84.4255C313.191 82.9809 313.765 81.5955 314.787 80.574C315.808 79.5526 317.194 78.9787 318.638 78.9787H356.766C358.21 78.9787 359.596 79.5526 360.617 80.574C361.639 81.5955 362.213 82.9809 362.213 84.4255V122.553Z" fill="#DD702D"/>
<path d="M323.181 103.438C323.181 94.656 329.092 87.9006 337.705 87.9006C346.191 87.9006 352.229 94.867 352.229 103.438C352.229 112.177 346.36 118.975 337.705 118.975C329.134 118.975 323.181 112.177 323.181 103.438ZM345.644 103.438C345.644 98.3285 342.983 93.7273 337.705 93.7273C332.427 93.7273 329.767 98.3285 329.767 103.438C329.767 108.588 332.342 113.149 337.705 113.149C343.067 113.149 345.644 108.588 345.644 103.438Z" fill="white"/>
</g>
<rect x="313.691" y="79.4787" width="48.0213" height="48.0213" stroke="white"/>
<g clip-path="url(#clip6_25_884)">
<path d="M424.851 122.553C424.851 123.998 424.277 125.383 423.256 126.405C422.234 127.426 420.849 128 419.404 128H381.277C379.832 128 378.447 127.426 377.425 126.405C376.404 125.383 375.83 123.998 375.83 122.553V84.4255C375.83 82.9809 376.404 81.5955 377.425 80.574C378.447 79.5526 379.832 78.9787 381.277 78.9787H419.404C420.849 78.9787 422.234 79.5526 423.256 80.574C424.277 81.5955 424.851 82.9809 424.851 84.4255V122.553Z" fill="#A61D2F"/>
<path d="M408.681 92.1218C408.681 93.7681 407.583 95.2456 405.854 95.2456C404.123 95.2456 402.771 93.9792 400.237 93.9792C398.422 93.9792 396.776 94.9501 396.776 96.7244C396.776 101.072 410.879 98.2863 410.879 109.179C410.879 115.216 405.896 118.973 400.07 118.973C396.818 118.973 389.811 118.213 389.811 114.244C389.811 112.598 390.908 111.247 392.639 111.247C394.623 111.247 396.987 112.893 399.732 112.893C402.518 112.893 404.039 111.331 404.039 109.262C404.039 104.28 389.937 107.278 389.937 97.4829C389.937 91.5717 394.792 87.8992 400.407 87.8992C402.771 87.9006 408.681 88.787 408.681 92.1218Z" fill="white"/>
</g>
<g clip-path="url(#clip7_25_884)">
<path d="M49.0213 43.5745C49.0213 45.0191 48.4474 46.4045 47.4259 47.4259C46.4045 48.4474 45.0191 49.0213 43.5745 49.0213H5.44681C4.00223 49.0213 2.61681 48.4474 1.59533 47.4259C0.573859 46.4045 0 45.0191 0 43.5745V5.44681C0 4.00223 0.573859 2.61681 1.59533 1.59533C2.61681 0.573859 4.00223 0 5.44681 0L43.5745 0C45.0191 0 46.4045 0.573859 47.4259 1.59533C48.4474 2.61681 49.0213 4.00223 49.0213 5.44681V43.5745Z" fill="#3B88C3"/>
<path d="M14.675 12.721C14.675 10.7357 15.857 9.42844 17.969 9.42844H25.442C31.65 9.42844 36.2512 13.4822 36.2512 19.5186C36.2512 25.6831 31.4798 29.5258 25.6967 29.5258H21.011V36.4501C21.011 38.5621 19.6602 39.7427 17.8437 39.7427C16.0272 39.7427 14.6764 38.5621 14.6764 36.4501V12.721H14.675ZM21.0083 23.9524H25.314C27.9748 23.9524 29.6633 22.0106 29.6633 19.4764C29.6633 16.9437 27.9748 15.0005 25.314 15.0005H21.0083V23.9524Z" fill="white"/>
</g>
<g clip-path="url(#clip8_25_884)">
<path d="M111.659 43.5745C111.659 45.0191 111.086 46.4045 110.064 47.4259C109.043 48.4474 107.657 49.0213 106.213 49.0213H68.085C66.6404 49.0213 65.255 48.4474 64.2335 47.4259C63.212 46.4045 62.6382 45.0191 62.6382 43.5745V5.44681C62.6382 4.00223 63.212 2.61681 64.2335 1.59533C65.255 0.573859 66.6404 0 68.085 0L106.213 0C107.657 0 109.043 0.573859 110.064 1.59533C111.086 2.61681 111.659 4.00223 111.659 5.44681V43.5745Z" fill="#DD702D"/>
<path d="M79.2769 13.1009C79.2769 10.9903 80.3322 9.42844 82.5695 9.42844H93.0396C95.0658 9.42844 96.038 10.8637 96.038 12.3425C96.038 13.7777 95.0249 15.2552 93.0396 15.2552H85.6101V21.4196H92.5344C94.6042 21.4196 95.6173 22.8548 95.6173 24.3336C95.6173 25.7689 94.562 27.2463 92.5344 27.2463H85.6101V33.664H93.4209C95.4471 33.664 96.418 35.1006 96.418 36.5781C96.418 38.0147 95.4049 39.4921 93.4209 39.4921H82.5286C80.6712 39.4921 79.2782 38.2257 79.2782 36.3261V13.1009H79.2769Z" fill="white"/>
</g>
<rect x="63.1382" y="0.5" width="48.0213" height="48.0213" stroke="white"/>
<g clip-path="url(#clip9_25_884)">
<path d="M174.298 43.5745C174.298 45.0191 173.724 46.4045 172.703 47.4259C171.681 48.4474 170.296 49.0213 168.851 49.0213H130.723C129.279 49.0213 127.893 48.4474 126.872 47.4259C125.85 46.4045 125.277 45.0191 125.277 43.5745V5.44681C125.277 4.00223 125.85 2.61681 126.872 1.59533C127.893 0.573859 129.279 0 130.723 0L168.851 0C170.296 0 171.681 0.573859 172.703 1.59533C173.724 2.61681 174.298 4.00223 174.298 5.44681V43.5745Z" fill="#A61D2F"/>
<path d="M157.221 38.1386C155.152 39.3205 152.662 39.9959 149.79 39.9959C141.219 39.9959 135.266 33.1983 135.266 24.4589C135.266 15.6773 141.177 8.92188 149.79 8.92188C158.276 8.92188 164.314 15.8883 164.314 24.4589C164.314 28.1736 163.343 31.552 161.484 34.2114L163.892 36.2812C164.695 36.9988 165.371 37.6742 165.371 38.8575C165.371 40.335 163.892 41.5169 162.458 41.5169C161.527 41.5169 160.769 41.137 159.628 40.1661L157.221 38.1386ZM156.716 29.8635C157.432 28.258 157.729 26.402 157.729 24.4589C157.729 19.4356 155.068 14.7486 149.79 14.7486C144.512 14.7486 141.853 19.3498 141.853 24.4589C141.853 29.6089 144.428 34.1706 149.79 34.1706C150.761 34.1706 151.649 34.0426 152.492 33.8737L150.972 32.3963C150.508 31.9728 150.17 31.2974 150.17 30.7077C150.17 29.0615 151.311 27.6684 153.04 27.6684C153.633 27.6684 154.138 27.8795 154.646 28.2172L156.716 29.8635Z" fill="white"/>
</g>
<g clip-path="url(#clip10_25_884)">
<path d="M236.936 43.5745C236.936 45.0191 236.362 46.4045 235.341 47.4259C234.319 48.4474 232.934 49.0213 231.489 49.0213H193.362C191.917 49.0213 190.532 48.4474 189.51 47.4259C188.489 46.4045 187.915 45.0191 187.915 43.5745V5.44681C187.915 4.00223 188.489 2.61681 189.51 1.59533C190.532 0.573859 191.917 0 193.362 0L231.489 0C232.934 0 234.319 0.573859 235.341 1.59533C236.362 2.61681 236.936 4.00223 236.936 5.44681V43.5745Z" fill="#3B88C3"/>
<path d="M198.808 12.4677C198.808 10.3571 200.397 9.17514 202.213 9.17514C204.028 9.17514 205.617 10.3571 205.617 12.4677V27.2027C205.617 31.0877 208.415 33.9064 212.425 33.9064C216.268 33.9064 219.234 30.9188 219.234 27.2027V12.4677C219.234 10.3571 220.824 9.17514 222.638 9.17514C224.455 9.17514 225.997 10.3571 225.997 12.4677V27.5404C225.997 34.6335 219.39 39.9959 212.425 39.9959C205.374 39.9959 198.808 34.718 198.808 27.5404V12.4677Z" fill="white"/>
</g>
<g clip-path="url(#clip11_25_884)">
<path d="M49.0213 122.553C49.0213 123.998 48.4474 125.383 47.4259 126.405C46.4045 127.426 45.0191 128 43.5745 128H5.44681C4.00223 128 2.61681 127.426 1.59533 126.405C0.573859 125.383 0 123.998 0 122.553V84.4255C0 82.9809 0.573859 81.5955 1.59533 80.574C2.61681 79.5526 4.00223 78.9787 5.44681 78.9787H43.5745C45.0191 78.9787 46.4045 79.5526 47.4259 80.574C48.4474 81.5955 49.0213 82.9809 49.0213 84.4255V122.553Z" fill="#A61D2F"/>
<path d="M26.8568 87.9006C29.9397 87.9006 35.9339 88.9137 35.9339 92.6298C35.9339 94.1494 34.8786 95.458 33.3167 95.458C31.5846 95.458 30.404 93.9806 26.8568 93.9806C21.6224 93.9806 18.9194 98.4143 18.9194 103.564C18.9194 108.588 21.6632 112.895 26.8568 112.895C30.404 112.895 31.8379 111.122 33.57 111.122C35.4709 111.122 36.3574 113.021 36.3574 113.991C36.3574 118.045 29.9819 118.973 26.8581 118.973C18.2876 118.973 12.3342 112.176 12.3342 103.436C12.3329 94.656 18.244 87.9006 26.8568 87.9006Z" fill="white"/>
</g>
<g clip-path="url(#clip12_25_884)">
<path d="M111.659 122.553C111.659 123.998 111.086 125.383 110.064 126.405C109.043 127.426 107.657 128 106.213 128H68.085C66.6404 128 65.255 127.426 64.2335 126.405C63.212 125.383 62.6382 123.998 62.6382 122.553V84.4255C62.6382 82.9809 63.212 81.5955 64.2335 80.574C65.255 79.5526 66.6404 78.9787 68.085 78.9787H106.213C107.657 78.9787 109.043 79.5526 110.064 80.574C111.086 81.5955 111.659 82.9809 111.659 84.4255V122.553Z" fill="#3B88C3"/>
<path d="M82.7193 91.4042C83.4369 89.4624 85.0832 87.9006 87.236 87.9006C89.4733 87.9006 91.0379 89.378 91.7542 91.4042L100.029 114.372C100.282 115.047 100.367 115.64 100.367 115.934C100.367 117.58 99.0161 118.72 97.4542 118.72C95.6799 118.72 94.7935 117.791 94.3713 116.526L93.1036 112.557H81.3657L80.0993 116.484C79.6772 117.793 78.7907 118.72 77.06 118.72C75.3715 118.72 73.9363 117.454 73.9363 115.765C73.9363 115.09 74.1473 114.583 74.2318 114.372L82.7193 91.4042ZM83.1822 106.732H91.204L87.2782 94.4871H87.1938L83.1822 106.732Z" fill="white"/>
</g>
<g clip-path="url(#clip13_25_884)">
<path d="M174.298 122.553C174.298 123.998 173.724 125.383 172.703 126.405C171.681 127.426 170.296 128 168.851 128H130.723C129.279 128 127.893 127.426 126.872 126.405C125.85 125.383 125.277 123.998 125.277 122.553V84.4255C125.277 82.9809 125.85 81.5955 126.872 80.574C127.893 79.5526 129.279 78.9787 130.723 78.9787H168.851C170.296 78.9787 171.681 79.5526 172.703 80.574C173.724 81.5955 174.298 82.9809 174.298 84.4255V122.553Z" fill="#DD702D"/>
<path d="M136.407 91.4042C136.66 89.8846 138.307 88.1538 140.545 88.1538C142.656 88.1538 144.304 89.6735 144.768 91.1932L149.751 107.912H149.835L154.815 91.1932C155.279 89.6735 156.925 88.1538 159.037 88.1538C161.273 88.1538 162.921 89.8846 163.176 91.4042L167.101 114.964C167.144 115.218 167.144 115.471 167.144 115.681C167.144 117.539 165.793 118.72 164.104 118.72C161.95 118.72 161.107 117.749 160.812 115.765L158.32 98.5818H158.235L153.168 116.272C152.873 117.285 152.072 118.72 149.791 118.72C147.512 118.72 146.71 117.285 146.414 116.272L141.347 98.5818H141.263L138.771 115.766C138.476 117.75 137.631 118.721 135.479 118.721C133.79 118.721 132.439 117.541 132.439 115.682C132.439 115.472 132.439 115.218 132.481 114.966L136.407 91.4042Z" fill="white"/>
</g>
<rect x="125.777" y="79.4787" width="48.0213" height="48.0213" stroke="white"/>
<g clip-path="url(#clip14_25_884)">
<path d="M236.936 122.553C236.936 123.998 236.362 125.383 235.341 126.405C234.32 127.426 232.934 128 231.49 128H193.362C191.917 128 190.532 127.426 189.51 126.405C188.489 125.383 187.915 123.998 187.915 122.553V84.4255C187.915 82.9809 188.489 81.5955 189.51 80.574C190.532 79.5526 191.917 78.9787 193.362 78.9787H231.49C232.934 78.9787 234.32 79.5526 235.341 80.574C236.362 81.5955 236.936 82.9809 236.936 84.4255V122.553Z" fill="#A61D2F"/>
<path d="M202.21 91.5731C202.21 89.5469 203.603 88.4071 205.545 88.4071H213.651C218.041 88.4071 221.59 91.362 221.59 95.8379C221.59 98.7928 220.364 100.778 217.661 102.045V102.129C221.252 102.636 224.079 105.633 224.079 109.307C224.079 115.26 220.111 118.469 214.284 118.469H205.589C203.645 118.469 202.21 117.245 202.21 115.261V91.5731ZM208.543 100.312H211.837C213.906 100.312 215.257 99.0883 215.257 96.9763C215.257 94.9923 213.695 93.9792 211.837 93.9792H208.543V100.312ZM208.543 112.895H213.526C215.805 112.895 217.495 111.586 217.495 109.222C217.495 107.237 215.974 105.886 213.019 105.886H208.543V112.895Z" fill="white"/>
</g>
<defs>
<clipPath id="clip0_25_884">
<rect x="250.553" width="49.0213" height="49.0213" fill="white"/>
</clipPath>
<clipPath id="clip1_25_884">
<rect width="49.0213" height="49.0213" fill="white" transform="translate(313.191)"/>
</clipPath>
<clipPath id="clip2_25_884">
<rect width="49.0213" height="49.0213" fill="white" transform="translate(375.83)"/>
</clipPath>
<clipPath id="clip3_25_884">
<rect x="438.468" width="49.0213" height="49.0213" fill="white"/>
</clipPath>
<clipPath id="clip4_25_884">
<rect width="49.0213" height="49.0213" fill="white" transform="translate(250.553 78.9787)"/>
</clipPath>
<clipPath id="clip5_25_884">
<rect x="313.191" y="78.9787" width="49.0213" height="49.0213" fill="white"/>
</clipPath>
<clipPath id="clip6_25_884">
<rect width="49.0213" height="49.0213" fill="white" transform="translate(375.83 78.9787)"/>
</clipPath>
<clipPath id="clip7_25_884">
<rect width="49.0213" height="49.0213" fill="white"/>
</clipPath>
<clipPath id="clip8_25_884">
<rect x="62.6382" width="49.0213" height="49.0213" fill="white"/>
</clipPath>
<clipPath id="clip9_25_884">
<rect width="49.0213" height="49.0213" fill="white" transform="translate(125.277)"/>
</clipPath>
<clipPath id="clip10_25_884">
<rect width="49.0213" height="49.0213" fill="white" transform="translate(187.915)"/>
</clipPath>
<clipPath id="clip11_25_884">
<rect width="49.0213" height="49.0213" fill="white" transform="translate(0 78.9787)"/>
</clipPath>
<clipPath id="clip12_25_884">
<rect width="49.0213" height="49.0213" fill="white" transform="translate(62.6382 78.9787)"/>
</clipPath>
<clipPath id="clip13_25_884">
<rect x="125.277" y="78.9787" width="49.0213" height="49.0213" fill="white"/>
</clipPath>
<clipPath id="clip14_25_884">
<rect width="49.0213" height="49.0213" fill="white" transform="translate(187.915 78.9787)"/>
</clipPath>
</defs>
</svg>
