<svg width="491" height="129" viewBox="0 0 491 129" fill="none" xmlns="http://www.w3.org/2000/svg">
<g clip-path="url(#clip0_61_2)">
<path d="M301.106 43.5745C301.106 45.0191 300.532 46.4045 299.511 47.4259C298.489 48.4474 297.104 49.0213 295.659 49.0213H257.532C256.087 49.0213 254.702 48.4474 253.68 47.4259C252.659 46.4045 252.085 45.0191 252.085 43.5745V5.44681C252.085 4.00223 252.659 2.61681 253.68 1.59533C254.702 0.573859 256.087 0 257.532 0L295.659 0C297.104 0 298.489 0.573859 299.511 1.59533C300.532 2.61681 301.106 4.00223 301.106 5.44681V43.5745Z" fill="#DD702D"/>
<path d="M268.724 13.1009C268.724 10.9903 269.779 9.42844 272.016 9.42844H282.486C284.513 9.42844 285.485 10.8637 285.485 12.3425C285.485 13.7777 284.472 15.2552 282.486 15.2552H275.057V21.4196H281.981C284.051 21.4196 285.064 22.8548 285.064 24.3336C285.064 25.7689 284.009 27.2463 281.981 27.2463H275.057V33.664H282.868C284.894 33.664 285.865 35.1006 285.865 36.5781C285.865 38.0147 284.852 39.4921 282.868 39.4921H271.975C270.118 39.4921 268.725 38.2257 268.725 36.3261V13.1009H268.724Z" fill="white"/>
</g>
<g clip-path="url(#clip1_61_2)">
<path d="M364.127 43.5745C364.127 45.0191 363.554 46.4045 362.532 47.4259C361.511 48.4474 360.125 49.0213 358.681 49.0213H320.553C319.108 49.0213 317.723 48.4474 316.702 47.4259C315.68 46.4045 315.106 45.0191 315.106 43.5745V5.44681C315.106 4.00223 315.68 2.61681 316.702 1.59533C317.723 0.573859 319.108 0 320.553 0L358.681 0C360.125 0 361.511 0.573859 362.532 1.59533C363.554 2.61681 364.127 4.00223 364.127 5.44681V43.5745Z" fill="#A61D2F"/>
<path d="M327.363 15.189C327.363 13.3084 328.655 12.2553 330.392 12.2553C331.159 12.2553 332.41 12.8195 332.936 13.4965L345.736 29.4096H345.817V15.189C345.817 13.3084 347.109 12.2553 348.843 12.2553C350.58 12.2553 351.872 13.3084 351.872 15.189V36.5557C351.872 38.4375 350.58 39.4894 348.843 39.4894C348.078 39.4894 346.866 38.9252 346.3 38.2494L333.5 22.5243H333.42V36.5557C333.42 38.4375 332.128 39.4894 330.391 39.4894C328.653 39.4894 327.362 38.4375 327.362 36.5557V15.189H327.363Z" fill="white"/>
<path d="M330.085 7.48936C331.301 5.948 335.045 3.7901 340.298 7.48936C345.55 11.1886 349.295 9.03072 350.51 7.48936" stroke="white" stroke-width="2" stroke-linecap="round"/>
</g>
<rect x="315.606" y="0.5" width="48.0213" height="48.0213" stroke="white"/>
<g clip-path="url(#clip2_61_2)">
<path d="M427.149 43.5745C427.149 45.0191 426.575 46.4045 425.553 47.4259C424.532 48.4474 423.146 49.0213 421.702 49.0213H383.574C382.13 49.0213 380.744 48.4474 379.723 47.4259C378.701 46.4045 378.127 45.0191 378.127 43.5745V5.44681C378.127 4.00223 378.701 2.61681 379.723 1.59533C380.744 0.573859 382.13 0 383.574 0L421.702 0C423.146 0 424.532 0.573859 425.553 1.59533C426.575 2.61681 427.149 4.00223 427.149 5.44681V43.5745Z" fill="#3B88C3"/>
<path d="M388.117 24.4589C388.117 15.6773 394.028 8.92188 402.641 8.92188C411.127 8.92188 417.165 15.8883 417.165 24.4589C417.165 33.1983 411.296 39.9959 402.641 39.9959C394.07 39.9959 388.117 33.1983 388.117 24.4589V24.4589ZM410.58 24.4589C410.58 19.3498 407.919 14.7486 402.641 14.7486C397.363 14.7486 394.703 19.3498 394.703 24.4589C394.703 29.6089 397.278 34.1706 402.641 34.1706C408.003 34.1706 410.58 29.6089 410.58 24.4589V24.4589Z" fill="white"/>
</g>
<g clip-path="url(#clip3_61_2)">
<path d="M490.17 43.5745C490.17 45.0191 489.596 46.4045 488.575 47.4259C487.553 48.4474 486.168 49.0213 484.723 49.0213H446.595C445.151 49.0213 443.765 48.4474 442.744 47.4259C441.723 46.4045 441.149 45.0191 441.149 43.5745V5.44681C441.149 4.00223 441.723 2.61681 442.744 1.59533C443.765 0.573859 445.151 0 446.595 0L484.723 0C486.168 0 487.553 0.573859 488.575 1.59533C489.596 2.61681 490.17 4.00223 490.17 5.44681V43.5745Z" fill="#DD702D"/>
<path d="M474 13.1431C474 14.7894 472.902 16.2669 471.173 16.2669C469.442 16.2669 468.09 15.0005 465.556 15.0005C463.741 15.0005 462.095 15.9714 462.095 17.7457C462.095 22.0936 476.198 19.3076 476.198 30.1998C476.198 36.2376 471.215 39.9945 465.388 39.9945C462.137 39.9945 455.129 39.2347 455.129 35.2654C455.129 33.6191 456.227 32.2682 457.958 32.2682C459.942 32.2682 462.306 33.9145 465.051 33.9145C467.837 33.9145 469.358 32.3527 469.358 30.2829C469.358 25.3018 455.256 28.2989 455.256 18.5042C455.256 12.593 460.111 8.9205 465.726 8.9205C468.09 8.92186 474 9.80833 474 13.1431V13.1431Z" fill="white"/>
</g>
<g clip-path="url(#clip4_61_2)">
<path d="M301.106 122.596C301.106 124.04 300.532 125.426 299.511 126.447C298.489 127.469 297.104 128.043 295.659 128.043H257.532C256.087 128.043 254.702 127.469 253.68 126.447C252.659 125.426 252.085 124.04 252.085 122.596V84.4681C252.085 83.0235 252.659 81.6381 253.68 80.6166C254.702 79.5951 256.087 79.0213 257.532 79.0213H295.659C297.104 79.0213 298.489 79.5951 299.511 80.6166C300.532 81.6381 301.106 83.0235 301.106 84.4681V122.596Z" fill="#3B88C3"/>
<path d="M273.43 91.489C273.43 89.3784 274.78 88.1964 276.597 88.1964C278.412 88.1964 279.763 89.3784 279.763 91.489V115.47C279.763 117.582 278.412 118.763 276.597 118.763C274.782 118.763 273.43 117.582 273.43 115.47V91.489Z" fill="white"/>
</g>
<g clip-path="url(#clip5_61_2)">
<path d="M364.127 122.596C364.127 124.04 363.554 125.426 362.532 126.447C361.511 127.469 360.125 128.043 358.681 128.043H320.553C319.108 128.043 317.723 127.469 316.702 126.447C315.68 125.426 315.106 124.04 315.106 122.596V84.4681C315.106 83.0235 315.68 81.6381 316.702 80.6166C317.723 79.5951 319.108 79.0213 320.553 79.0213H358.681C360.125 79.0213 361.511 79.5951 362.532 80.6166C363.554 81.6381 364.127 83.0235 364.127 84.4681V122.596Z" fill="#DD702D"/>
<path d="M325.096 103.48C325.096 94.6986 331.007 87.9431 339.62 87.9431C348.106 87.9431 354.144 94.9096 354.144 103.48C354.144 112.22 348.275 119.017 339.62 119.017C331.049 119.017 325.096 112.22 325.096 103.48V103.48ZM347.558 103.48C347.558 98.3711 344.898 93.7699 339.62 93.7699C334.342 93.7699 331.682 98.3711 331.682 103.48C331.682 108.63 334.257 113.192 339.62 113.192C344.982 113.192 347.558 108.63 347.558 103.48V103.48Z" fill="white"/>
</g>
<g clip-path="url(#clip6_61_2)">
<path d="M427.149 122.596C427.149 124.04 426.575 125.426 425.553 126.447C424.532 127.469 423.146 128.043 421.702 128.043H383.574C382.13 128.043 380.744 127.469 379.723 126.447C378.701 125.426 378.127 124.04 378.127 122.596V84.4681C378.127 83.0235 378.701 81.6381 379.723 80.6166C380.744 79.5951 382.13 79.0213 383.574 79.0213H421.702C423.146 79.0213 424.532 79.5951 425.553 80.6166C426.575 81.6381 427.149 83.0235 427.149 84.4681V122.596Z" fill="#A61D2F"/>
<path d="M410.979 92.1644C410.979 93.8107 409.881 95.2882 408.152 95.2882C406.421 95.2882 405.069 94.0218 402.535 94.0218C400.72 94.0218 399.073 94.9927 399.073 96.767C399.073 101.115 413.176 98.3288 413.176 109.221C413.176 115.259 408.194 119.016 402.367 119.016C399.115 119.016 392.108 118.256 392.108 114.287C392.108 112.64 393.206 111.29 394.936 111.29C396.92 111.29 399.284 112.936 402.03 112.936C404.816 112.936 406.337 111.374 406.337 109.304C406.337 104.323 392.235 107.32 392.235 97.5254C392.235 91.6143 397.089 87.9418 402.705 87.9418C405.069 87.9431 410.979 88.8296 410.979 92.1644V92.1644Z" fill="white"/>
</g>
<rect x="378.627" y="79.5213" width="48.0213" height="48.0213" stroke="white"/>
<g clip-path="url(#clip7_61_2)">
<path d="M49.0213 43.5745C49.0213 45.0191 48.4474 46.4045 47.4259 47.4259C46.4045 48.4474 45.0191 49.0213 43.5745 49.0213H5.44681C4.00223 49.0213 2.61681 48.4474 1.59533 47.4259C0.573859 46.4045 0 45.0191 0 43.5745V5.44681C0 4.00223 0.573859 2.61681 1.59533 1.59533C2.61681 0.573859 4.00223 0 5.44681 0L43.5745 0C45.0191 0 46.4045 0.573859 47.4259 1.59533C48.4474 2.61681 49.0213 4.00223 49.0213 5.44681V43.5745Z" fill="#3B88C3"/>
<path d="M14.675 12.721C14.675 10.7357 15.857 9.42844 17.969 9.42844H25.442C31.65 9.42844 36.2512 13.4822 36.2512 19.5186C36.2512 25.6831 31.4798 29.5258 25.6967 29.5258H21.011V36.4501C21.011 38.5621 19.6602 39.7427 17.8437 39.7427C16.0272 39.7427 14.6764 38.5621 14.6764 36.4501V12.721H14.675ZM21.0083 23.9524H25.314C27.9748 23.9524 29.6633 22.0106 29.6633 19.4764C29.6633 16.9437 27.9748 15.0005 25.314 15.0005H21.0083V23.9524V23.9524Z" fill="white"/>
</g>
<g clip-path="url(#clip8_61_2)">
<path d="M112.043 43.5745C112.043 45.0191 111.469 46.4045 110.447 47.4259C109.426 48.4474 108.04 49.0213 106.596 49.0213H68.468C67.0235 49.0213 65.638 48.4474 64.6166 47.4259C63.5951 46.4045 63.0212 45.0191 63.0212 43.5745V5.44681C63.0212 4.00223 63.5951 2.61681 64.6166 1.59533C65.638 0.573859 67.0235 0 68.468 0L106.596 0C108.04 0 109.426 0.573859 110.447 1.59533C111.469 2.61681 112.043 4.00223 112.043 5.44681V43.5745Z" fill="#DD702D"/>
<path d="M79.6599 13.1009C79.6599 10.9903 80.7152 9.42844 82.9525 9.42844H93.4226C95.4488 9.42844 96.4211 10.8637 96.4211 12.3425C96.4211 13.7777 95.408 15.2552 93.4226 15.2552H85.9932V21.4196H92.9174C94.9872 21.4196 96.0003 22.8548 96.0003 24.3336C96.0003 25.7689 94.945 27.2463 92.9174 27.2463H85.9932V33.664H93.8039C95.8301 33.664 96.801 35.1006 96.801 36.5781C96.801 38.0147 95.7879 39.4921 93.8039 39.4921H82.9117C81.0543 39.4921 79.6613 38.2257 79.6613 36.3261V13.1009H79.6599Z" fill="white"/>
</g>
<g clip-path="url(#clip9_61_2)">
<path d="M174.564 43.5745C174.564 44.8864 174.043 46.1447 173.115 47.0724C172.187 48.0001 170.929 48.5213 169.617 48.5213H131.489C130.177 48.5213 128.919 48.0001 127.991 47.0724C127.064 46.1447 126.542 44.8864 126.542 43.5745V5.44681C126.542 4.13483 127.064 2.87659 127.991 1.94889C128.919 1.02118 130.177 0.5 131.489 0.5H169.617C170.929 0.5 172.187 1.02118 173.115 1.94889C174.043 2.87659 174.564 4.13483 174.564 5.44681V43.5745Z" fill="#A61D2F" stroke="white"/>
<path d="M157.987 38.1386C155.918 39.3205 153.428 39.9959 150.556 39.9959C141.985 39.9959 136.032 33.1983 136.032 24.4589C136.032 15.6773 141.943 8.92188 150.556 8.92188C159.042 8.92188 165.08 15.8883 165.08 24.4589C165.08 28.1736 164.109 31.552 162.25 34.2114L164.658 36.2812C165.461 36.9988 166.136 37.6742 166.136 38.8575C166.136 40.335 164.658 41.5169 163.224 41.5169C162.292 41.5169 161.535 41.137 160.394 40.1661L157.987 38.1386V38.1386ZM157.482 29.8635C158.198 28.258 158.495 26.402 158.495 24.4589C158.495 19.4356 155.834 14.7486 150.556 14.7486C145.278 14.7486 142.619 19.3498 142.619 24.4589C142.619 29.6089 145.194 34.1706 150.556 34.1706C151.527 34.1706 152.415 34.0426 153.258 33.8737L151.738 32.3963C151.274 31.9728 150.936 31.2974 150.936 30.7077C150.936 29.0615 152.077 27.6684 153.806 27.6684C154.399 27.6684 154.904 27.8795 155.412 28.2172L157.482 29.8635V29.8635Z" fill="white"/>
</g>
<g clip-path="url(#clip10_61_2)">
<path d="M238.085 43.5745C238.085 45.0191 237.511 46.4045 236.49 47.4259C235.468 48.4474 234.083 49.0213 232.638 49.0213H194.511C193.066 49.0213 191.681 48.4474 190.659 47.4259C189.638 46.4045 189.064 45.0191 189.064 43.5745V5.44681C189.064 4.00223 189.638 2.61681 190.659 1.59533C191.681 0.573859 193.066 0 194.511 0L232.638 0C234.083 0 235.468 0.573859 236.49 1.59533C237.511 2.61681 238.085 4.00223 238.085 5.44681V43.5745Z" fill="#3B88C3"/>
<path d="M199.957 12.4677C199.957 10.3571 201.546 9.17514 203.362 9.17514C205.177 9.17514 206.766 10.3571 206.766 12.4677V27.2027C206.766 31.0877 209.564 33.9064 213.574 33.9064C217.417 33.9064 220.383 30.9188 220.383 27.2027V12.4677C220.383 10.3571 221.973 9.17514 223.787 9.17514C225.604 9.17514 227.146 10.3571 227.146 12.4677V27.5404C227.146 34.6335 220.539 39.9959 213.574 39.9959C206.523 39.9959 199.957 34.718 199.957 27.5404V12.4677Z" fill="white"/>
</g>
<g clip-path="url(#clip11_61_2)">
<path d="M49.0213 122.596C49.0213 124.04 48.4474 125.426 47.4259 126.447C46.4045 127.469 45.0191 128.043 43.5745 128.043H5.44681C4.00223 128.043 2.61681 127.469 1.59533 126.447C0.573859 125.426 0 124.04 0 122.596V84.4681C0 83.0235 0.573859 81.6381 1.59533 80.6166C2.61681 79.5952 4.00223 79.0213 5.44681 79.0213H43.5745C45.0191 79.0213 46.4045 79.5952 47.4259 80.6166C48.4474 81.6381 49.0213 83.0235 49.0213 84.4681V122.596Z" fill="#A61D2F"/>
<path d="M26.8568 87.9432C29.9397 87.9432 35.9339 88.9563 35.9339 92.6724C35.9339 94.192 34.8786 95.5006 33.3167 95.5006C31.5846 95.5006 30.404 94.0232 26.8568 94.0232C21.6224 94.0232 18.9194 98.4569 18.9194 103.607C18.9194 108.63 21.6633 112.937 26.8568 112.937C30.404 112.937 31.8379 111.164 33.57 111.164C35.4709 111.164 36.3574 113.064 36.3574 114.033C36.3574 118.087 29.9819 119.016 26.8581 119.016C18.2876 119.016 12.3342 112.218 12.3342 103.479C12.3329 94.6986 18.244 87.9432 26.8568 87.9432V87.9432Z" fill="white"/>
</g>
<rect x="0.5" y="79.5213" width="48.0213" height="48.0213" stroke="white"/>
<g clip-path="url(#clip12_61_2)">
<path d="M112.043 122.596C112.043 124.04 111.469 125.426 110.447 126.447C109.426 127.469 108.04 128.043 106.596 128.043H68.468C67.0235 128.043 65.638 127.469 64.6166 126.447C63.5951 125.426 63.0212 124.04 63.0212 122.596V84.4681C63.0212 83.0235 63.5951 81.6381 64.6166 80.6166C65.638 79.5951 67.0235 79.0213 68.468 79.0213H106.596C108.04 79.0213 109.426 79.5951 110.447 80.6166C111.469 81.6381 112.043 83.0235 112.043 84.4681V122.596Z" fill="#3B88C3"/>
<path d="M83.1023 91.4468C83.8199 89.505 85.4662 87.9431 87.6191 87.9431C89.8564 87.9431 91.421 89.4206 92.1372 91.4468L100.412 114.415C100.666 115.09 100.75 115.682 100.75 115.977C100.75 117.623 99.3992 118.763 97.8373 118.763C96.063 118.763 95.1765 117.834 94.7544 116.569L93.4867 112.599H81.7488L80.4824 116.527C80.0603 117.835 79.1738 118.763 77.4431 118.763C75.7546 118.763 74.3193 117.496 74.3193 115.808C74.3193 115.132 74.5304 114.626 74.6148 114.415L83.1023 91.4468V91.4468ZM83.5653 106.774H91.5871L87.6613 94.5297H87.5769L83.5653 106.774V106.774Z" fill="white"/>
</g>
<g clip-path="url(#clip13_61_2)">
<path d="M175.064 122.596C175.064 124.04 174.49 125.426 173.468 126.447C172.447 127.469 171.062 128.043 169.617 128.043H131.489C130.045 128.043 128.659 127.469 127.638 126.447C126.616 125.426 126.042 124.04 126.042 122.596V84.4681C126.042 83.0235 126.616 81.6381 127.638 80.6166C128.659 79.5951 130.045 79.0213 131.489 79.0213H169.617C171.062 79.0213 172.447 79.5951 173.468 80.6166C174.49 81.6381 175.064 83.0235 175.064 84.4681V122.596Z" fill="#DD702D"/>
<path d="M137.173 91.4468C137.426 89.9271 139.073 88.1964 141.311 88.1964C143.422 88.1964 145.07 89.7161 145.534 91.2357L150.516 107.955H150.601L155.581 91.2357C156.045 89.7161 157.691 88.1964 159.803 88.1964C162.039 88.1964 163.687 89.9271 163.941 91.4468L167.867 115.007C167.909 115.26 167.909 115.514 167.909 115.723C167.909 117.582 166.559 118.763 164.87 118.763C162.716 118.763 161.873 117.792 161.578 115.808L159.086 98.6243H159.001L153.934 116.314C153.639 117.327 152.838 118.763 150.557 118.763C148.278 118.763 147.476 117.327 147.18 116.314L142.113 98.6243H142.029L139.537 115.809C139.242 117.793 138.397 118.764 136.244 118.764C134.556 118.764 133.205 117.583 133.205 115.725C133.205 115.515 133.205 115.26 133.247 115.008L137.173 91.4468Z" fill="white"/>
</g>
<g clip-path="url(#clip14_61_2)">
<path d="M238.085 122.596C238.085 124.04 237.511 125.426 236.49 126.447C235.468 127.469 234.083 128.043 232.638 128.043H194.511C193.066 128.043 191.681 127.469 190.659 126.447C189.638 125.426 189.064 124.04 189.064 122.596V84.4681C189.064 83.0235 189.638 81.6381 190.659 80.6166C191.681 79.5951 193.066 79.0213 194.511 79.0213H232.638C234.083 79.0213 235.468 79.5951 236.49 80.6166C237.511 81.6381 238.085 83.0235 238.085 84.4681V122.596Z" fill="#A61D2F"/>
<path d="M203.359 91.6157C203.359 89.5895 204.752 88.4497 206.694 88.4497H214.8C219.19 88.4497 222.739 91.4046 222.739 95.8805C222.739 98.8354 221.513 100.821 218.81 102.087V102.172C222.401 102.678 225.228 105.675 225.228 109.349C225.228 115.302 221.26 118.512 215.433 118.512H206.737C204.794 118.512 203.359 117.288 203.359 115.304V91.6157V91.6157ZM209.692 100.355H212.986C215.055 100.355 216.405 99.1309 216.405 97.0189C216.405 95.0349 214.843 94.0218 212.986 94.0218H209.692V100.355V100.355ZM209.692 112.937H214.675C216.954 112.937 218.644 111.629 218.644 109.265C218.644 107.279 217.123 105.929 214.168 105.929H209.692V112.937V112.937Z" fill="white"/>
</g>
<rect x="189.564" y="79.5213" width="48.0213" height="48.0213" stroke="white"/>
<defs>
<clipPath id="clip0_61_2">
<rect width="49.0213" height="49.0213" fill="white" transform="translate(252.085)"/>
</clipPath>
<clipPath id="clip1_61_2">
<rect x="315.106" width="49.0213" height="49.0213" fill="white"/>
</clipPath>
<clipPath id="clip2_61_2">
<rect width="49.0213" height="49.0213" fill="white" transform="translate(378.127)"/>
</clipPath>
<clipPath id="clip3_61_2">
<rect width="49.0213" height="49.0213" fill="white" transform="translate(441.149)"/>
</clipPath>
<clipPath id="clip4_61_2">
<rect width="49.0213" height="49.0213" fill="white" transform="translate(252.085 79.0213)"/>
</clipPath>
<clipPath id="clip5_61_2">
<rect width="49.0213" height="49.0213" fill="white" transform="translate(315.106 79.0213)"/>
</clipPath>
<clipPath id="clip6_61_2">
<rect x="378.127" y="79.0213" width="49.0213" height="49.0213" fill="white"/>
</clipPath>
<clipPath id="clip7_61_2">
<rect width="49.0213" height="49.0213" fill="white"/>
</clipPath>
<clipPath id="clip8_61_2">
<rect width="49.0213" height="49.0213" fill="white" transform="translate(63.0212)"/>
</clipPath>
<clipPath id="clip9_61_2">
<rect width="49.0213" height="49.0213" fill="white" transform="translate(126.042)"/>
</clipPath>
<clipPath id="clip10_61_2">
<rect width="49.0213" height="49.0213" fill="white" transform="translate(189.064)"/>
</clipPath>
<clipPath id="clip11_61_2">
<rect y="79.0213" width="49.0213" height="49.0213" fill="white"/>
</clipPath>
<clipPath id="clip12_61_2">
<rect width="49.0213" height="49.0213" fill="white" transform="translate(63.0212 79.0213)"/>
</clipPath>
<clipPath id="clip13_61_2">
<rect width="49.0213" height="49.0213" fill="white" transform="translate(126.042 79.0213)"/>
</clipPath>
<clipPath id="clip14_61_2">
<rect x="189.064" y="79.0213" width="49.0213" height="49.0213" fill="white"/>
</clipPath>
</defs>
</svg>
