<svg width="169" height="169" viewBox="0 0 169 169" fill="none" xmlns="http://www.w3.org/2000/svg">
<path d="M159.738 49.6316C160.007 50.6074 159.667 51.6842 159.099 52.5254L140.962 79.5115C140.289 80.5546 138.876 81.1267 137.695 81.1267C137.359 81.1267 136.416 81.0594 136.05 80.9584L121.513 77.3917V141.324C121.513 143.276 120.134 144.689 118.149 144.689H47.4866C45.5013 144.689 44.1217 143.276 44.1217 141.324V77.3917L31.0661 80.9921C29.5519 81.4631 28.2396 80.8575 27.3984 79.5452L9.39643 52.6263C8.8244 51.7515 8.65616 50.7757 8.92535 49.7999C9.16089 48.7904 9.86751 48.1174 10.776 47.6463L47.4866 30.2837H64.3109C66.2961 30.2837 67.6757 31.6633 67.6757 33.6485C67.6757 40.5801 77.4002 45.4928 84.3318 45.4928C91.2634 45.4928 101.324 40.6138 101.324 33.6485C101.324 31.6969 102.704 30.2837 104.689 30.2837H121.513L157.854 47.3099C158.796 47.7809 159.469 48.6222 159.738 49.6316Z" fill="#363636"/>
</svg>
