<svg width="350" height="323" viewBox="0 0 350 323" fill="none" xmlns="http://www.w3.org/2000/svg">
<path d="M238.187 11.8062C246.409 5.28582 258.359 6.66499 264.88 14.8867L337.581 106.557C344.102 114.779 342.722 126.73 334.501 133.25L202.802 237.697C200.13 239.816 196.937 241.177 193.558 241.637L79.9074 257.106C65.6087 259.052 54.445 244.976 59.597 231.496L100.547 124.356C101.764 121.171 103.816 118.372 106.488 116.253L238.187 11.8062Z" fill="#D9D9D9"/>
<circle cx="86.1937" cy="230.575" r="9" fill="#A61D2F"/>
<path d="M155.222 204.615L152.378 206.796C151.938 207.133 151.562 207.099 151.25 206.693L142.137 194.808C141.8 194.368 141.851 193.979 142.291 193.642L145.491 191.188C145.897 190.877 146.269 190.941 146.607 191.381L147.425 192.448C147.918 193.091 148.969 193.656 150.579 194.142C152.162 194.595 153.603 194.861 154.901 194.941C156.199 195.021 157.686 194.822 159.362 194.343C161.046 193.805 162.65 192.951 164.174 191.783C166.781 189.784 168.397 187.684 169.022 185.484C169.681 183.259 169.271 181.181 167.791 179.251C166.934 178.133 165.784 177.51 164.34 177.38C162.905 177.191 161.345 177.365 159.661 177.904C157.977 178.442 156.166 179.131 154.23 179.971C152.327 180.785 150.368 181.561 148.353 182.3C146.347 182.978 144.41 183.468 142.545 183.77C140.653 184.037 138.791 183.852 136.958 183.215C135.133 182.517 133.545 181.288 132.195 179.528C130.014 176.684 129.276 173.513 129.981 170.015C130.72 166.491 132.901 163.34 136.524 160.562C141.095 157.057 145.473 155.824 149.657 156.864L147.141 153.793C146.829 153.386 146.893 153.014 147.334 152.677L150.178 150.496C150.584 150.184 150.943 150.232 151.255 150.638L159.744 161.71C160.056 162.116 160.008 162.475 159.602 162.787L156.402 165.24C155.996 165.552 155.637 165.504 155.326 165.098L154.235 163.676C153.171 162.288 151.315 161.48 148.667 161.252C146.019 161.024 143.188 162.066 140.175 164.376C137.94 166.09 136.544 168.02 135.987 170.168C135.437 172.256 135.798 174.13 137.071 175.789C137.979 176.974 139.181 177.665 140.677 177.863C142.172 178.06 143.792 177.894 145.536 177.363C147.28 176.832 149.133 176.164 151.096 175.358C153.032 174.518 155.008 173.729 157.023 172.991C159.037 172.252 160.994 171.72 162.894 171.392C164.794 171.065 166.647 171.203 168.454 171.806C170.235 172.376 171.775 173.508 173.073 175.201C175.357 178.18 176.173 181.453 175.52 185.018C174.867 188.584 172.424 191.989 168.192 195.235C165.077 197.623 162.023 198.97 159.031 199.275C156.039 199.58 153.527 199.355 151.497 198.6L155.364 203.538C155.676 203.944 155.628 204.303 155.222 204.615ZM219.035 155.684L207.557 164.485C207.151 164.797 206.792 164.749 206.481 164.343L204.494 161.753C204.183 161.346 204.23 160.987 204.637 160.676L208.192 157.95L198.153 151.695L183.983 162.56L187.419 173.878L190.975 171.152C191.381 170.84 191.74 170.888 192.051 171.294L194.037 173.884C194.349 174.29 194.302 174.649 193.895 174.961L182.468 183.723C182.062 184.035 181.703 183.987 181.391 183.581L179.405 180.991C179.094 180.584 179.141 180.225 179.547 179.914L182.95 177.305L171.75 140.084L169.007 142.187C168.567 142.525 168.191 142.49 167.88 142.084L165.893 139.494C165.582 139.088 165.646 138.716 166.086 138.378L172.994 133.082C173.806 132.459 174.545 132.161 175.211 132.188C175.911 132.189 176.712 132.462 177.614 133.007L212.661 154.523L216.115 151.875C216.521 151.563 216.88 151.611 217.191 152.017L219.177 154.607C219.489 155.013 219.442 155.372 219.035 155.684ZM194.095 149.242L176.891 138.481L176.739 138.598L182.617 158.043L194.095 149.242ZM249.843 132.061L222.062 153.363C221.622 153.7 221.246 153.666 220.935 153.26L218.949 150.669C218.637 150.263 218.701 149.891 219.142 149.554L223.002 146.594L200.882 117.746L197.022 120.706C196.582 121.044 196.206 121.009 195.894 120.603L193.908 118.013C193.597 117.606 193.661 117.234 194.101 116.897L206.239 107.59C206.68 107.252 207.068 107.303 207.406 107.743L209.314 110.232C209.652 110.672 209.6 111.061 209.16 111.399L205.3 114.358L227.42 143.206L243.571 130.822L239.754 125.845C239.443 125.438 239.507 125.066 239.947 124.729L242.69 122.626C243.096 122.314 243.455 122.362 243.766 122.768L249.997 130.894C250.335 131.334 250.284 131.723 249.843 132.061ZM281.071 108.116L254.102 128.795C253.662 129.132 253.286 129.098 252.975 128.692L250.989 126.102C250.677 125.695 250.742 125.323 251.182 124.986L255.042 122.026L232.922 93.1786L229.062 96.1383C228.622 96.4758 228.246 96.4414 227.934 96.0351L225.948 93.4449C225.637 93.0386 225.701 92.6667 226.141 92.3292L253.109 71.6503C253.55 71.3127 253.926 71.3471 254.237 71.7534L260.507 79.9303C260.844 80.3705 260.793 80.7593 260.353 81.0968L257.61 83.1997C257.204 83.5113 256.832 83.447 256.495 83.0068L252.678 78.0296L237.34 89.7905L246.998 102.386L259.848 92.5332C260.288 92.1957 260.664 92.2301 260.975 92.6364L262.961 95.2266C263.273 95.6329 263.208 96.0048 262.768 96.3423L249.919 106.195L259.46 118.638L274.747 106.916L270.931 101.939C270.619 101.533 270.684 101.161 271.124 100.823L273.866 98.7202C274.306 98.3827 274.682 98.4171 274.994 98.8234L281.264 107C281.575 107.407 281.511 107.778 281.071 108.116Z" fill="#A61D2F"/>
</svg>
