<svg width="35" height="35" viewBox="0 0 35 35" fill="none" xmlns="http://www.w3.org/2000/svg">
<path d="M17.5 0.833252C22.1416 0.833252 22.7207 0.850335 24.5418 0.935752C26.3611 1.02117 27.5997 1.30646 28.6896 1.73013C29.8171 2.16404 30.7669 2.75171 31.7168 3.69984C32.5854 4.55382 33.2576 5.58684 33.6865 6.727C34.1084 7.81521 34.3954 9.05546 34.4809 10.8748C34.5611 12.6959 34.5834 13.275 34.5834 17.9166C34.5834 22.5581 34.5663 23.1373 34.4809 24.9583C34.3954 26.7777 34.1084 28.0163 33.6865 29.1062C33.2588 30.247 32.5865 31.2802 31.7168 32.1333C30.8625 33.0017 29.8296 33.6738 28.6896 34.103C27.6014 34.525 26.3611 34.812 24.5418 34.8974C22.7207 34.9777 22.1416 34.9999 17.5 34.9999C12.8585 34.9999 12.2794 34.9828 10.4583 34.8974C8.6389 34.812 7.40035 34.525 6.31044 34.103C5.16983 33.6751 4.13663 33.0028 3.28327 32.1333C2.41442 31.2795 1.74224 30.2464 1.31356 29.1062C0.889896 28.018 0.604604 26.7777 0.519187 24.9583C0.438895 23.1373 0.416687 22.5581 0.416687 17.9166C0.416687 13.275 0.43377 12.6959 0.519187 10.8748C0.604604 9.05375 0.889896 7.81692 1.31356 6.727C1.74105 5.58614 2.41339 4.55284 3.28327 3.69984C4.13687 2.83069 5.17 2.15846 6.31044 1.73013C7.40035 1.30646 8.63719 1.02117 10.4583 0.935752C12.2794 0.85546 12.8585 0.833252 17.5 0.833252ZM17.5 9.37492C15.2346 9.37492 13.062 10.2748 11.4601 11.8767C9.85828 13.4786 8.95835 15.6512 8.95835 17.9166C8.95835 20.182 9.85828 22.3546 11.4601 23.9565C13.062 25.5583 15.2346 26.4583 17.5 26.4583C19.7654 26.4583 21.938 25.5583 23.5399 23.9565C25.1418 22.3546 26.0417 20.182 26.0417 17.9166C26.0417 15.6512 25.1418 13.4786 23.5399 11.8767C21.938 10.2748 19.7654 9.37492 17.5 9.37492ZM28.6042 8.94784C28.6042 8.38149 28.3792 7.83834 27.9787 7.43787C27.5783 7.0374 27.0351 6.81242 26.4688 6.81242C25.9024 6.81242 25.3593 7.0374 24.9588 7.43787C24.5583 7.83834 24.3334 8.38149 24.3334 8.94784C24.3334 9.51418 24.5583 10.0573 24.9588 10.4578C25.3593 10.8583 25.9024 11.0833 26.4688 11.0833C27.0351 11.0833 27.5783 10.8583 27.9787 10.4578C28.3792 10.0573 28.6042 9.51418 28.6042 8.94784ZM17.5 12.7916C18.8593 12.7916 20.1628 13.3315 21.1239 14.2927C22.0851 15.2538 22.625 16.5574 22.625 17.9166C22.625 19.2758 22.0851 20.5794 21.1239 21.5405C20.1628 22.5016 18.8593 23.0416 17.5 23.0416C16.1408 23.0416 14.8372 22.5016 13.8761 21.5405C12.915 20.5794 12.375 19.2758 12.375 17.9166C12.375 16.5574 12.915 15.2538 13.8761 14.2927C14.8372 13.3315 16.1408 12.7916 17.5 12.7916Z" fill="#6D6D6D"/>
</svg>
