<svg width="32" height="39" viewBox="0 0 32 39" fill="none" xmlns="http://www.w3.org/2000/svg">
<path d="M16 19.8726C17.1 19.8726 18.042 19.4831 18.826 18.7041C19.6087 17.9264 20 16.9911 20 15.8981C20 14.8051 19.6087 13.8691 18.826 13.0901C18.042 12.3124 17.1 11.9236 16 11.9236C14.9 11.9236 13.9587 12.3124 13.176 13.0901C12.392 13.8691 12 14.8051 12 15.8981C12 16.9911 12.392 17.9264 13.176 18.7041C13.9587 19.4831 14.9 19.8726 16 19.8726ZM16 39C15.7333 39 15.4667 38.9503 15.2 38.851C14.9333 38.7516 14.7 38.6191 14.5 38.4535C9.63333 34.1809 6 30.215 3.6 26.5558C1.2 22.8952 0 19.4752 0 16.2955C0 11.3274 1.60867 7.36943 4.826 4.42166C8.042 1.47389 11.7667 0 16 0C20.2333 0 23.958 1.47389 27.174 4.42166C30.3913 7.36943 32 11.3274 32 16.2955C32 19.4752 30.8 22.8952 28.4 26.5558C26 30.215 22.3667 34.1809 17.5 38.4535C17.3 38.6191 17.0667 38.7516 16.8 38.851C16.5333 38.9503 16.2667 39 16 39Z" fill="#6D6D6D"/>
</svg>
