<svg width="230" height="193" viewBox="0 0 230 193" fill="none" xmlns="http://www.w3.org/2000/svg">
<g clip-path="url(#clip0_25_378)">
<path d="M142.169 9.66553H106.325V10.1777H142.169V9.66553Z" fill="#F2F2F2"/>
<path d="M132.44 10.0496H131.928V14.7873H132.44V10.0496Z" fill="#F2F2F2"/>
<path d="M116.823 10.0496H116.311V14.7873H116.823V10.0496Z" fill="#F2F2F2"/>
<path d="M160.347 34.2507H124.503V34.7629H160.347V34.2507Z" fill="#F2F2F2"/>
<path d="M134.744 29.641H134.232V34.3788H134.744V29.641Z" fill="#F2F2F2"/>
<path d="M150.362 29.641H149.85V34.3788H150.362V29.641Z" fill="#F2F2F2"/>
<path d="M207.968 45.7751H172.124V46.2873H207.968V45.7751Z" fill="#F2F2F2"/>
<path d="M182.366 41.1654H181.853V45.9032H182.366V41.1654Z" fill="#F2F2F2"/>
<path d="M197.983 41.1654H197.471V45.9032H197.983V41.1654Z" fill="#F2F2F2"/>
<path d="M204.384 164.604H168.54V165.116H204.384V164.604Z" fill="#F2F2F2"/>
<path d="M178.781 159.994H178.269V164.732H178.781V159.994Z" fill="#F2F2F2"/>
<path d="M194.399 159.994H193.887V164.732H194.399V159.994Z" fill="#F2F2F2"/>
<path d="M143.193 82.397H107.35V82.9092H143.193V82.397Z" fill="#F2F2F2"/>
<path d="M117.591 77.7872H117.079V82.525H117.591V77.7872Z" fill="#F2F2F2"/>
<path d="M133.208 77.7872H132.696V82.525H133.208V77.7872Z" fill="#F2F2F2"/>
<path d="M154.459 144.116H118.615V144.628H154.459V144.116Z" fill="#F2F2F2"/>
<path d="M128.856 139.506H128.344V144.244H128.856V139.506Z" fill="#F2F2F2"/>
<path d="M144.473 139.506H143.961V144.244H144.473V139.506Z" fill="#F2F2F2"/>
<path d="M211.809 125.421H175.965V125.933H211.809V125.421Z" fill="#F2F2F2"/>
<path d="M186.206 120.811H185.694V125.549H186.206V120.811Z" fill="#F2F2F2"/>
<path d="M201.824 120.811H201.311V125.549H201.824V120.811Z" fill="#F2F2F2"/>
<path d="M93.2199 180.297H32.5963V179.861H92.7836V158.702H37.6927L35.0165 153.125L35.4097 152.936L37.9672 158.265H93.2199V180.297Z" fill="#2F2E41"/>
<path d="M40.6648 190.985C43.194 190.985 45.2443 188.934 45.2443 186.404C45.2443 183.874 43.194 181.823 40.6648 181.823C38.1356 181.823 36.0853 183.874 36.0853 186.404C36.0853 188.934 38.1356 190.985 40.6648 190.985Z" fill="#3F3D56"/>
<path d="M85.8054 190.985C88.3346 190.985 90.3849 188.934 90.3849 186.404C90.3849 183.874 88.3346 181.823 85.8054 181.823C83.2763 181.823 81.226 183.874 81.226 186.404C81.226 188.934 83.2763 190.985 85.8054 190.985Z" fill="#3F3D56"/>
<path d="M139.015 91.954C140.58 91.954 141.85 90.6844 141.85 89.1183C141.85 87.5522 140.58 86.2826 139.015 86.2826C137.449 86.2826 136.18 87.5522 136.18 89.1183C136.18 90.6844 137.449 91.954 139.015 91.954Z" fill="#3F3D56"/>
<path d="M99.7038 151.503H31.5626L16.8184 103.297H114.888L114.799 103.58L99.7038 151.503ZM31.8852 151.067H99.3839L114.293 103.733H17.4079L31.8852 151.067Z" fill="#2F2E41"/>
<path d="M94.3848 148.995H34.5339L21.5835 106.241H107.721L107.643 106.493L94.3848 148.995Z" fill="#F2F2F2"/>
<path d="M116.11 98.9901L115.688 98.8781L118.566 88.0276H135.308V88.464H118.902L116.11 98.9901Z" fill="#2F2E41"/>
<path d="M109.987 117.911H21.5831V118.348H109.987V117.911Z" fill="#2F2E41"/>
<path d="M104.925 133.984H26.499V134.42H104.925V133.984Z" fill="#2F2E41"/>
<path d="M66.0701 103.515H65.6339V151.285H66.0701V103.515Z" fill="#2F2E41"/>
<path d="M85.5969 103.501L82.4661 151.271L82.9013 151.299L86.0321 103.53L85.5969 103.501Z" fill="#2F2E41"/>
<path d="M46.1161 103.501L45.6808 103.529L48.7935 151.3L49.2288 151.271L46.1161 103.501Z" fill="#2F2E41"/>
<path d="M229.923 191.262H0.522705V191.774H229.923V191.262Z" fill="#2F2E41"/>
<path d="M152.964 16.3158C152.964 16.3158 156.707 26.9711 154.403 28.6103C152.1 30.2496 162.177 43.6369 162.177 43.6369L174.269 40.3584L167.647 29.1568C167.647 29.1568 166.783 17.9551 166.783 16.3158C166.783 14.6766 152.964 16.3158 152.964 16.3158Z" fill="#A0616A"/>
<path opacity="0.1" d="M152.964 16.3158C152.964 16.3158 156.707 26.9711 154.403 28.6103C152.1 30.2496 162.177 43.6369 162.177 43.6369L174.269 40.3584L167.647 29.1568C167.647 29.1568 166.783 17.9551 166.783 16.3158C166.783 14.6766 152.964 16.3158 152.964 16.3158Z" fill="black"/>
<path d="M146.682 92.2684C146.682 92.2684 145.589 105.929 146.682 113.032C147.774 120.136 149.413 139.807 149.413 139.807C149.413 139.807 149.413 176.964 155.422 177.51C161.431 178.057 165.801 178.603 166.348 176.417C166.894 174.232 163.616 173.139 165.255 172.046C166.894 170.953 167.44 167.128 165.255 162.757C163.07 158.386 165.255 114.125 165.255 114.125L175.634 141.993C175.634 141.993 176.727 164.943 177.819 168.221C178.912 171.5 176.727 177.51 180.551 178.057C184.375 178.603 188.745 175.325 190.93 174.232C193.115 173.139 187.652 173.139 188.745 172.592C189.837 172.046 193.115 170.407 192.022 169.86C190.93 169.314 189.837 143.086 189.837 143.086C189.837 143.086 186.833 87.0774 183.009 84.8918C179.185 82.7061 176.727 86.4708 176.727 86.4708L146.682 92.2684Z" fill="#2F2E41"/>
<path d="M156.515 175.325V179.696C156.515 179.696 151.598 191.579 156.515 191.579C161.431 191.579 165.255 192.81 165.255 191.171V176.418L156.515 175.325Z" fill="#2F2E41"/>
<path d="M188.745 175.317V179.688C188.745 179.688 193.661 191.571 188.745 191.571C183.828 191.571 180.004 192.802 180.004 191.163V176.41L188.745 175.317Z" fill="#2F2E41"/>
<path d="M160.612 24.2389C166.042 24.2389 170.445 19.8354 170.445 14.4033C170.445 8.9713 166.042 4.56775 160.612 4.56775C155.181 4.56775 150.779 8.9713 150.779 14.4033C150.779 19.8354 155.181 24.2389 160.612 24.2389Z" fill="#A0616A"/>
<path d="M157.607 32.7085C157.607 32.7085 160.339 40.9048 164.709 39.2656L169.079 37.6263L176.727 90.0828C176.727 90.0828 170.718 98.8256 161.977 93.3613C153.237 87.8971 157.607 32.7085 157.607 32.7085Z" fill="#DD702D"/>
<path d="M165.255 31.0693L167.713 25.8783C167.713 25.8783 182.19 32.7086 184.375 34.8943C186.56 37.0799 186.56 40.3585 186.56 40.3585L182.736 54.019C182.736 54.019 183.828 84.0722 183.828 85.1651C183.828 86.2579 187.652 92.2686 184.921 90.0829C182.19 87.8972 181.643 85.7115 179.458 88.99C177.273 92.2686 172.357 96.0935 172.357 96.0935L165.255 31.0693Z" fill="#3F3D56"/>
<path d="M184.375 70.4116L182.736 85.7114C182.736 85.7114 172.903 94.4542 175.088 95.0006C177.273 95.547 178.366 93.3613 178.366 93.3613C178.366 93.3613 182.19 97.1863 184.375 95.0006C186.56 92.8149 192.022 72.0509 192.022 72.0509L184.375 70.4116Z" fill="#A0616A"/>
<path d="M160.821 0.502864C158.641 0.424916 156.309 0.386358 154.471 1.56137C153.625 2.15105 152.883 2.87731 152.276 3.71041C150.486 5.97391 148.939 8.82191 149.604 11.6303L150.376 11.329C150.376 12.0787 150.21 12.8189 149.889 13.4963C149.997 13.18 150.362 13.6913 150.264 14.0112L149.413 16.8029C150.812 16.2901 152.551 17.3283 152.764 18.8029C152.862 15.5604 153.198 11.8423 155.827 9.94367C157.154 8.98621 158.832 8.69392 160.447 8.43436C161.936 8.19491 163.498 7.96658 164.925 8.45712C166.352 8.94766 167.567 10.4073 167.243 11.8814C167.901 11.6547 168.637 12.1133 168.962 12.7287C169.287 13.3441 169.304 14.07 169.314 14.7659C170.015 15.2617 170.813 14.2773 171.099 13.4673C171.77 11.5659 172.366 9.54196 172.005 7.55833C171.644 5.57471 170.028 3.67905 168.012 3.67232C168.256 3.4035 168.387 3.05003 168.376 2.68667L166.714 2.54625C167.136 2.48651 167.524 2.28195 167.812 1.96759C167.145 2.7018 161.9 0.541435 160.821 0.502864Z" fill="#2F2E41"/>
<path d="M160.339 29.4299C160.339 29.4299 155.892 25.0709 154.291 25.338C152.691 25.605 150.506 29.4299 150.506 29.4299C150.506 29.4299 137.395 33.8013 137.941 38.1727C138.488 42.5441 144.497 63.8545 144.497 63.8545C144.497 63.8545 149.413 89.5363 145.043 92.2685C140.673 95.0006 165.801 102.104 166.348 98.8255C166.894 95.547 167.986 62.7617 166.348 57.8439C164.709 52.9261 160.339 29.4299 160.339 29.4299Z" fill="#3F3D56"/>
<path d="M179.458 38.1727H186.213C186.213 38.1727 190.93 58.9368 191.476 61.1225C192.022 63.3081 193.115 73.6902 192.569 73.6902C192.022 73.6902 181.097 71.5045 181.097 73.1437L179.458 38.1727Z" fill="#3F3D56"/>
<path d="M142.858 75.3294L150.506 78.6079C150.506 78.6079 165.255 80.7936 165.255 74.783C165.255 68.7723 150.506 72.0509 150.506 72.0509L145.589 70.4784L142.858 75.3294Z" fill="#A0616A"/>
<path d="M144.497 34.8942L137.941 36.5334L133.025 65.4938C133.025 65.4938 131.386 73.1437 134.117 73.6901C136.849 74.2365 144.497 78.6079 144.497 78.6079C144.497 78.6079 145.589 70.4116 147.774 70.4116L142.312 66.0402L145.589 46.9155L144.497 34.8942Z" fill="#3F3D56"/>
<path d="M51.7917 90.8481H15.9479V91.3603H51.7917V90.8481Z" fill="#F2F2F2"/>
<path d="M26.1891 86.2384H25.677V90.9762H26.1891V86.2384Z" fill="#F2F2F2"/>
<path d="M41.8067 86.2384H41.2946V90.9762H41.8067V86.2384Z" fill="#F2F2F2"/>
<path d="M64.3371 15.0435H28.4933V15.5557H64.3371V15.0435Z" fill="#F2F2F2"/>
<path d="M54.608 15.4276H54.0959V20.1654H54.608V15.4276Z" fill="#F2F2F2"/>
<path d="M38.9904 15.4276H38.4783V20.1654H38.9904V15.4276Z" fill="#F2F2F2"/>
<path d="M100.437 65.4945H64.5931V66.0067H100.437V65.4945Z" fill="#F2F2F2"/>
<path d="M90.7079 65.8787H90.1958V70.6164H90.7079V65.8787Z" fill="#F2F2F2"/>
<path d="M75.0902 65.8787H74.5781V70.6164H75.0902V65.8787Z" fill="#F2F2F2"/>
<path d="M39.5024 65.2384H3.65863V65.7506H39.5024V65.2384Z" fill="#F2F2F2"/>
<path d="M29.7734 65.6226H29.2614V70.3603H29.7734V65.6226Z" fill="#F2F2F2"/>
<path d="M14.1557 65.6226H13.6437V70.3603H14.1557V65.6226Z" fill="#F2F2F2"/>
<path d="M82.515 39.6288H46.6712V40.141H82.515V39.6288Z" fill="#F2F2F2"/>
<path d="M56.9123 35.019H56.4002V39.7568H56.9123V35.019Z" fill="#F2F2F2"/>
<path d="M72.5299 35.019H72.0179V39.7568H72.5299V35.019Z" fill="#F2F2F2"/>
</g>
<defs>
<clipPath id="clip0_25_378">
<rect width="229.4" height="191.553" fill="white" transform="translate(0.522705 0.469604)"/>
</clipPath>
</defs>
</svg>
