<svg width="153" height="137" viewBox="0 0 153 137" fill="none" xmlns="http://www.w3.org/2000/svg">
<path d="M112.97 66.0322C98.6316 66.0322 84.5839 51.3341 70.8268 21.9378C70.4393 21.3576 70.1002 20.7774 69.8096 20.1972C69.5189 19.617 69.2283 18.9401 68.9376 18.1666C68.647 17.393 68.4048 16.8128 68.211 16.426C65.6921 12.3646 62.0107 10.334 57.1666 10.334H26.0679C22.7739 10.334 19.916 11.5427 17.4939 13.9602C15.0719 16.3776 13.8609 19.2302 13.8609 22.518C13.8609 39.1501 12.2139 50.3671 8.91999 56.169C0.00695384 66.9992 -1.44626 82.6644 4.56035 103.164H1.36328V121.73C1.36328 125.018 2.5743 127.871 4.99632 130.288C7.41833 132.706 10.3732 133.914 13.8609 133.914H137.675C141.162 133.914 144.117 132.706 146.539 130.288C148.961 127.871 150.172 125.018 150.172 121.73V103.164C150.172 99.4899 149.542 95.6703 148.283 91.7057C147.024 87.741 145.086 83.7764 142.47 79.8118C139.854 75.8471 135.979 72.5594 130.844 69.9485C125.71 67.3377 119.752 66.0322 112.97 66.0322ZM119.073 78.7964C124.305 79.9568 128.471 82.5193 131.571 86.4839C134.671 90.4486 136.464 93.7363 136.948 96.3472C137.432 98.958 137.675 101.23 137.675 103.164H119.073V78.7964ZM18.8018 63.4214C23.6459 57.4261 26.0679 43.7916 26.0679 22.518H57.1666C57.3604 23.0982 57.7963 23.9685 58.4745 25.1288C59.1527 26.2892 59.5886 27.0628 59.7824 27.4496C59.7824 28.0298 60.1699 28.7067 60.945 29.4803C60.7512 29.4803 60.073 29.8671 58.9105 30.6406L52.807 36.7326C50.0943 39.827 50.0943 42.7279 52.807 45.4355C53.9696 46.7893 55.4228 47.4662 57.1666 47.4662C58.9105 47.4662 60.3637 46.7893 61.5263 45.4355L66.4672 40.5039C66.8547 41.4709 67.6782 42.9697 68.9376 45.0003C70.1971 47.031 71.0206 48.4331 71.4081 49.2067L65.3046 55.2987C62.2044 58.3931 62.2044 61.294 65.3046 64.0016C66.4672 65.3553 67.9204 66.0322 69.6642 66.0322C71.2143 66.0322 72.6675 65.3553 74.0239 64.0016L78.9648 59.07C81.8712 62.7445 85.1652 66.0322 88.8466 68.9332L83.9057 73.8648C80.8055 76.9592 80.8055 79.8601 83.9057 82.5677C85.0683 83.9214 86.5215 84.5983 88.2654 84.5983C89.8155 84.5983 91.2687 83.9214 92.625 82.5677L98.7285 76.4757C99.116 76.0889 99.3098 75.7021 99.3098 75.3153C101.247 76.0889 103.766 76.8624 106.866 77.636V103.164H17.3486V101.134C16.3798 98.2328 15.5563 94.7516 14.8782 90.6903C14.2 86.629 14.0547 81.8424 14.4422 76.3306C14.8297 70.8188 16.2829 66.5157 18.8018 63.4214ZM137.675 121.73H13.8609V115.348H137.675V121.73ZM44.669 96.7823C50.0943 96.7823 54.5508 95.0417 58.0385 91.5606C61.5263 88.0795 63.2701 83.6313 63.2701 78.2162C63.2701 72.9945 61.5263 68.5947 58.0385 65.0169C54.5508 61.4391 50.0943 59.6501 44.669 59.6501C39.4374 59.6501 35.0294 61.4391 31.4448 65.0169C27.8602 68.5947 26.0679 72.9945 26.0679 78.2162C26.0679 83.6313 27.8602 88.0795 31.4448 91.5606C35.0294 95.0417 39.4374 96.7823 44.669 96.7823ZM44.669 72.1242C46.6066 72.1242 48.1567 72.7044 49.3193 73.8648C50.4818 75.0252 51.0631 76.4757 51.0631 78.2162C51.0631 82.471 48.9318 84.5983 44.669 84.5983C42.9251 84.5983 41.4719 84.0181 40.3094 82.8577C39.1468 81.6974 38.5655 80.1502 38.5655 78.2162C38.5655 76.4757 39.1468 75.0252 40.3094 73.8648C41.4719 72.7044 42.9251 72.1242 44.669 72.1242Z" fill="#363636"/>
</svg>
